<?xml version="1.0" encoding="UTF-8"?>
<svg version="1.1" xmlns="http://www.w3.org/2000/svg" width="853" height="1280">
<path d="M0 0 C281.49 0 562.98 0 853 0 C853 422.4 853 844.8 853 1280 C571.51 1280 290.02 1280 0 1280 C0 857.6 0 435.2 0 0 Z " fill="#FEFEFE" transform="translate(0,0)"/>
<path d="M0 0 C1.85181587 0.15600321 3.70679236 0.27546013 5.5625 0.375 C34.83330426 2.54200982 63.24558679 12.13382944 89 26 C90.16660156 26.61359375 91.33320313 27.2271875 92.53515625 27.859375 C107.16883331 35.8443803 120.23462876 46.23462876 132 58 C133.1026831 59.05883884 134.20695155 60.11602826 135.3125 61.171875 C144.56365593 70.09823096 152.52033627 79.55221574 160 90 C160.63679688 90.886875 161.27359375 91.77375 161.9296875 92.6875 C165.73501523 98.20818272 168.90329444 104.05968501 172 110 C172.30164063 110.57073242 172.60328125 111.14146484 172.9140625 111.72949219 C199.31828591 161.88141652 204.44867946 219.24864142 188.12109375 273.47265625 C179.18953998 301.8202623 164.90485924 326.2698383 146 349 C145.38640625 349.74636719 144.7728125 350.49273438 144.140625 351.26171875 C142.47607503 353.22704136 140.75983275 355.11928985 139 357 C138.10410156 357.96035156 137.20820312 358.92070313 136.28515625 359.91015625 C117.53541808 379.54735026 93.53370346 394.58052947 69 406 C67.7625 406.59361328 67.7625 406.59361328 66.5 407.19921875 C45.28111475 416.7537452 19.38082944 421.90389854 -3.85546875 422.2734375 C-4.58692612 422.28592026 -5.31838348 422.29840302 -6.07200623 422.31126404 C-25.27575264 422.57464807 -43.1897264 421.26812855 -62 417 C-62.9192627 416.79713379 -63.83852539 416.59426758 -64.78564453 416.38525391 C-92.27926077 410.18870737 -120.24014258 397.03870916 -142 379 C-142.86238281 378.30261719 -143.72476563 377.60523438 -144.61328125 376.88671875 C-172.39811237 354.24871597 -193.50679442 326.82192327 -208 294 C-208.47953125 292.9584375 -208.9590625 291.916875 -209.453125 290.84375 C-218.91865937 269.51634345 -224.090323 245.25656708 -224.203125 221.9453125 C-224.20882507 221.0042868 -224.21452515 220.06326111 -224.22039795 219.09371948 C-224.22979301 217.10871483 -224.2363599 215.12369498 -224.24023438 213.13867188 C-224.24986171 210.16767525 -224.2809059 207.19739509 -224.3125 204.2265625 C-224.40769501 187.34079846 -222.34929401 171.42562179 -217.875 155.125 C-217.57424561 154.02696045 -217.27349121 152.9289209 -216.96362305 151.79760742 C-213.9123549 141.07741807 -209.85905786 131.01860044 -205 121 C-204.30100586 119.55850586 -204.30100586 119.55850586 -203.58789062 118.08789062 C-197.62024722 105.93975523 -191.18231044 94.77634002 -183 84 C-182.27606305 82.87963673 -181.55718382 81.75598689 -180.84375 80.62890625 C-180.2353125 79.76136719 -179.626875 78.89382813 -179 78 C-178.34 78 -177.68 78 -177 78 C-176.60385498 77.12275269 -176.60385498 77.12275269 -176.19970703 76.2277832 C-174.95218335 73.91120737 -173.60082802 72.27130093 -171.8046875 70.35546875 C-170.85335937 69.33936523 -170.85335937 69.33936523 -169.8828125 68.30273438 C-169.22023437 67.60470703 -168.55765625 66.90667969 -167.875 66.1875 C-167.235625 65.50107422 -166.59625 64.81464844 -165.9375 64.10742188 C-162.09378024 60.02829357 -158.11404489 56.22995952 -153.84545898 52.59741211 C-151.90019426 50.91360908 -150.04592021 49.15373794 -148.1875 47.375 C-118.30544495 21.08283651 -79.86444161 6.79896974 -41 1 C-39.51022256 0.75508403 -38.02061364 0.50913859 -36.53125 0.26171875 C-25.52311301 -1.38278952 -10.68263135 -3.56087712 0 0 Z " fill="#534F44" transform="translate(417,400)"/>
<path d="M0 0 C1.85181587 0.15600321 3.70679236 0.27546013 5.5625 0.375 C34.83330426 2.54200982 63.24558679 12.13382944 89 26 C90.16660156 26.61359375 91.33320313 27.2271875 92.53515625 27.859375 C107.16883331 35.8443803 120.23462876 46.23462876 132 58 C133.1026831 59.05883884 134.20695155 60.11602826 135.3125 61.171875 C144.56365593 70.09823096 152.52033627 79.55221574 160 90 C160.63679688 90.886875 161.27359375 91.77375 161.9296875 92.6875 C165.73501523 98.20818272 168.90329444 104.05968501 172 110 C172.30164063 110.57073242 172.60328125 111.14146484 172.9140625 111.72949219 C199.31828591 161.88141652 204.44867946 219.24864142 188.12109375 273.47265625 C179.18953998 301.8202623 164.90485924 326.2698383 146 349 C145.38640625 349.74636719 144.7728125 350.49273438 144.140625 351.26171875 C142.47607503 353.22704136 140.75983275 355.11928985 139 357 C138.10410156 357.96035156 137.20820312 358.92070313 136.28515625 359.91015625 C117.53541808 379.54735026 93.53370346 394.58052947 69 406 C67.7625 406.59361328 67.7625 406.59361328 66.5 407.19921875 C45.28111475 416.7537452 19.38082944 421.90389854 -3.85546875 422.2734375 C-4.58692612 422.28592026 -5.31838348 422.29840302 -6.07200623 422.31126404 C-25.27575264 422.57464807 -43.1897264 421.26812855 -62 417 C-62.9192627 416.79713379 -63.83852539 416.59426758 -64.78564453 416.38525391 C-92.27926077 410.18870737 -120.24014258 397.03870916 -142 379 C-142.86238281 378.30261719 -143.72476563 377.60523438 -144.61328125 376.88671875 C-172.39811237 354.24871597 -193.50679442 326.82192327 -208 294 C-208.47953125 292.9584375 -208.9590625 291.916875 -209.453125 290.84375 C-218.91865937 269.51634345 -224.090323 245.25656708 -224.203125 221.9453125 C-224.20882507 221.0042868 -224.21452515 220.06326111 -224.22039795 219.09371948 C-224.22979301 217.10871483 -224.2363599 215.12369498 -224.24023438 213.13867188 C-224.24986171 210.16767525 -224.2809059 207.19739509 -224.3125 204.2265625 C-224.40769501 187.34079846 -222.34929401 171.42562179 -217.875 155.125 C-217.57424561 154.02696045 -217.27349121 152.9289209 -216.96362305 151.79760742 C-213.9123549 141.07741807 -209.85905786 131.01860044 -205 121 C-204.30100586 119.55850586 -204.30100586 119.55850586 -203.58789062 118.08789062 C-197.62024722 105.93975523 -191.18231044 94.77634002 -183 84 C-182.27606305 82.87963673 -181.55718382 81.75598689 -180.84375 80.62890625 C-180.2353125 79.76136719 -179.626875 78.89382813 -179 78 C-178.34 78 -177.68 78 -177 78 C-176.60385498 77.12275269 -176.60385498 77.12275269 -176.19970703 76.2277832 C-174.95218335 73.91120737 -173.60082802 72.27130093 -171.8046875 70.35546875 C-170.85335937 69.33936523 -170.85335937 69.33936523 -169.8828125 68.30273438 C-169.22023437 67.60470703 -168.55765625 66.90667969 -167.875 66.1875 C-167.235625 65.50107422 -166.59625 64.81464844 -165.9375 64.10742188 C-162.09378024 60.02829357 -158.11404489 56.22995952 -153.84545898 52.59741211 C-151.90019426 50.91360908 -150.04592021 49.15373794 -148.1875 47.375 C-118.30544495 21.08283651 -79.86444161 6.79896974 -41 1 C-39.51022256 0.75508403 -38.02061364 0.50913859 -36.53125 0.26171875 C-25.52311301 -1.38278952 -10.68263135 -3.56087712 0 0 Z M-59 23 C-60.25611084 23.32943604 -60.25611084 23.32943604 -61.53759766 23.66552734 C-79.81868747 28.50373298 -96.50469052 35.83641474 -113 45 C-113.62874023 45.33596191 -114.25748047 45.67192383 -114.90527344 46.01806641 C-118.50877881 47.98265692 -121.18496328 50.04075034 -124 53 C-125.81416091 54.37974587 -127.64952688 55.73185065 -129.5 57.0625 C-137.99200726 63.35095091 -145.54239443 70.51794327 -153 78 C-153.62261719 78.5878125 -154.24523437 79.175625 -154.88671875 79.78125 C-186.94950907 110.38347938 -205.05949736 159.55280374 -206.2421875 203.1015625 C-206.43188115 215.53602272 -206.18634387 227.73636999 -204 240 C-203.88172852 240.72960937 -203.76345703 241.45921875 -203.64160156 242.2109375 C-200.28523035 262.77618404 -193.65591344 282.54045033 -184 301 C-183.40960938 302.14984375 -182.81921875 303.2996875 -182.2109375 304.484375 C-172.72995446 321.99393516 -159.95935623 336.92879849 -146 351 C-144.95017944 352.06420166 -144.95017944 352.06420166 -143.87915039 353.14990234 C-121.86580012 375.34853736 -91.91577635 389.34011329 -62.05273438 397.44140625 C-60.70296 397.80870927 -59.3551985 398.18350582 -58.00976562 398.56640625 C-18.89252568 409.69827752 27.57778721 405.09207956 64 387 C64.57427734 386.71898437 65.14855469 386.43796875 65.74023438 386.1484375 C69.88481432 384.11944911 74.00911656 382.05366274 78.11962891 379.95654297 C79.72474812 379.14002037 81.33634501 378.33625248 82.94921875 377.53515625 C93.9325785 371.8710918 103.67114587 364.0848436 113.125 356.1875 C113.64497559 355.75606689 114.16495117 355.32463379 114.70068359 354.88012695 C118.22113652 351.87779361 121.0759747 348.57328971 124 345 C125.66005561 343.3267484 127.32692068 341.66022925 129 340 C147.50294612 320.09218823 160.27671534 296.82242655 169.22021484 271.22412109 C169.86810035 269.3762072 170.54904422 267.53992342 171.23828125 265.70703125 C177.44548585 247.94819491 178.37773839 229.00496456 178.375 210.375 C178.37771912 209.18150436 178.37771912 209.18150436 178.38049316 207.96389771 C178.3767829 193.59309943 177.22148862 179.55816928 173.75 165.5625 C173.53311523 164.67836426 173.31623047 163.79422852 173.09277344 162.88330078 C168.15592387 143.35711272 160.34445565 124.78826285 149.05078125 108.07421875 C147.23469841 105.35182409 145.60388051 102.59987032 144 99.75 C140.7071803 94.18595562 136.40325267 89.69680284 132 85 C130.8064802 83.63022201 129.61852828 82.25556273 128.4375 80.875 C119.93180034 71.16254204 110.27024121 63.04000519 99.88671875 55.39453125 C98.60714181 54.44875699 97.33912297 53.48718096 96.08203125 52.51171875 C87.55377672 45.92402513 78.27958757 40.97680468 68.5625 36.375 C67.12293945 35.67890625 67.12293945 35.67890625 65.65429688 34.96875 C56.01317982 30.37217702 46.34332567 26.84258189 35.9375 24.4375 C35.13634766 24.24220703 34.33519531 24.04691406 33.50976562 23.84570312 C30.68180911 23.17940792 27.84700378 22.57989682 25 22 C24.37631531 21.87078156 23.75263062 21.74156311 23.11004639 21.60842896 C10.46105659 19.04869905 -1.86734529 18.47650134 -14.75 18.5625 C-15.71800537 18.56554138 -16.68601074 18.56858276 -17.68334961 18.57171631 C-31.80340948 18.63732997 -45.32440886 19.19659301 -59 23 Z " fill="#545146" transform="translate(417,400)"/>
<path d="M0 0 C3.33511388 2.9901021 5.21521119 5.89498574 7 10 C7 10.66 7 11.32 7 12 C7.66 12 8.32 12 9 12 C9.58007812 13.03898437 10.16015625 14.07796875 10.7578125 15.1484375 C11.54656391 16.55746586 12.33564909 17.9663074 13.125 19.375 C13.53371338 20.10509277 13.94242676 20.83518555 14.36352539 21.58740234 C16.64697847 25.64976727 18.98689304 29.66024631 21.4375 33.625 C23.48679004 36.98560859 24.99046211 40.16375603 26 44 C26.66 44 27.32 44 28 44 C28.99 47.96 28.99 47.96 30 52 C30.66 52 31.32 52 32 52 C32.36351562 52.67804688 32.72703125 53.35609375 33.1015625 54.0546875 C36.07008109 59.55025268 39.14096668 64.95247101 42.37890625 70.29296875 C45.68084173 75.80680318 48.83211471 81.4084578 52 87 C52.5878125 88.03592285 52.5878125 88.03592285 53.1875 89.09277344 C54.39785373 91.22737965 55.60563237 93.36342114 56.8125 95.5 C57.18544189 96.15822754 57.55838379 96.81645508 57.94262695 97.49462891 C59.52272835 100.29947905 61.05109639 103.10246099 62.48828125 105.984375 C64.32525831 109.6488357 66.34403744 113.19059863 68.375 116.75 C80.35985818 137.93287877 80.35985818 137.93287877 80.3125 151.25 C80.32861328 152.14074219 80.34472656 153.03148437 80.36132812 153.94921875 C80.36760417 162.59760439 78.80143993 170.40071957 73.4375 177.375 C71.01126097 180.49095272 71.01126097 180.49095272 69.19921875 183.9609375 C67.31062057 187.17216958 64.32828537 189.07920904 61.375 191.25 C60.76398438 191.70890625 60.15296875 192.1678125 59.5234375 192.640625 C58.0209208 193.76751252 56.51115591 194.88472437 55 196 C56.50572812 204.48419881 61.42441933 211.50854678 65.9140625 218.72021484 C67.80457231 221.79865864 69.25056725 224.47019585 70 228 C70.66 228 71.32 228 72 228 C81.53373752 244.88530845 81.53373752 244.88530845 85.7109375 252.66796875 C86.8840555 254.79024585 88.14617622 256.82381562 89.4375 258.875 C91.20104206 262.40208411 90.94984222 263.33720974 90 267 C84.4503454 267.29812194 78.90539931 267.51499829 73.34960938 267.65917969 C71.46336678 267.7192964 69.57767825 267.80102615 67.69335938 267.90527344 C52.08151505 268.74692678 52.08151505 268.74692678 47.08081055 264.55004883 C44.98533366 261.44860663 43.45356912 258.44384894 42 255 C41.22779762 253.59048171 40.44476945 252.18676111 39.64453125 250.79296875 C39.02834723 249.59395996 38.41749097 248.39219529 37.8125 247.1875 C35.54326584 242.7992097 33.22350652 238.65678031 30.2109375 234.734375 C28.03653762 231.62007324 26.36875394 228.21236557 24.625 224.84375 C23.820625 223.43609375 23.820625 223.43609375 23 222 C22.68127426 221.41505264 22.36254852 220.83010529 22.03416443 220.22743225 C19.7093274 216.42813316 18.70510135 215.17797303 14.22290039 214.04663086 C12.76572457 213.98063586 11.30629582 213.9554999 9.84765625 213.96484375 C9.06990341 213.95103165 8.29215057 213.93721954 7.49082947 213.92298889 C5.85116124 213.90513546 4.21120804 213.90537143 2.5715332 213.92260742 C0.06933904 213.93745941 -2.4192722 213.86180625 -4.91992188 213.77929688 C-13.14851247 213.47808487 -13.14851247 213.47808487 -20.26318359 216.9453125 C-21.85007278 219.56663739 -22.92313031 222.13420499 -24 225 C-24.94485338 226.72718096 -25.91884296 228.43875562 -26.921875 230.1328125 C-28.35698884 232.66304076 -29.78886417 235.19460126 -31.20703125 237.734375 C-31.66980469 238.54648437 -32.13257813 239.35859375 -32.609375 240.1953125 C-33.02155273 240.92766113 -33.43373047 241.66000977 -33.85839844 242.41455078 C-34.23512695 242.93774902 -34.61185547 243.46094727 -35 244 C-35.66 244 -36.32 244 -37 244 C-37.12375 244.556875 -37.2475 245.11375 -37.375 245.6875 C-38.06449421 248.23862859 -38.9861357 250.55695861 -40 253 C-40.46398193 254.16160645 -40.92796387 255.32321289 -41.40600586 256.52001953 C-43.3200272 260.59572477 -45.34738109 264.2567525 -49 267 C-55.85418735 269.30427618 -63.46834558 268.3122342 -70.5625 267.875 C-72.54470204 267.80469881 -74.52714342 267.74083352 -76.50976562 267.68359375 C-81.34579285 267.53001499 -86.17025173 267.2890163 -91 267 C-90.03835782 259.39689572 -90.03835782 259.39689572 -87.3125 255.8125 C-83.53851689 250.53075124 -80.78961121 244.84631285 -78 239 C-77.34 239 -76.68 239 -76 239 C-75.7525 238.154375 -75.505 237.30875 -75.25 236.4375 C-73.86026373 232.61572526 -72.08879162 229.48131937 -70 226 C-69.34 226 -68.68 226 -68 226 C-67.6596875 224.7934375 -67.6596875 224.7934375 -67.3125 223.5625 C-63.98984666 214.54386951 -58.26017719 206.38099172 -53.28515625 198.19726562 C-51.18106329 194.7161903 -49.13867402 191.27767054 -47.3203125 187.63671875 C-46.03788907 185.07566604 -44.94471796 183.10018741 -43 181 C-40.74104309 180.51898193 -40.74104309 180.51898193 -38.06958008 180.54589844 C-37.06876907 180.54620056 -36.06795807 180.54650269 -35.03681946 180.54681396 C-33.4195118 180.57778168 -33.4195118 180.57778168 -31.76953125 180.609375 C-30.66397385 180.61503479 -29.55841644 180.62069458 -28.4193573 180.62652588 C-24.88330036 180.64894205 -21.34825141 180.69915004 -17.8125 180.75 C-15.41733233 180.77005813 -13.02214879 180.78831009 -10.62695312 180.8046875 C-4.75095733 180.848824 1.12444933 180.91578872 7 181 C7 180.34 7 179.68 7 179 C7.60585938 178.85304688 8.21171875 178.70609375 8.8359375 178.5546875 C14.88228813 176.93612595 19.72373384 174.61795157 24.96875 171.20703125 C27 170 27 170 29 170 C29.268125 169.360625 29.53625 168.72125 29.8125 168.0625 C31 166 31 166 34 165 C37.11828482 159.3665554 38.42340558 152.25793104 37 146 C34.43434364 140.39493298 31.25692714 135.22512581 28 130 C26.47492759 127.52052105 24.95312863 125.03906842 23.43286133 122.55664062 C22.44765261 120.95457061 21.45545335 119.35677539 20.45581055 117.76367188 C20.0050415 117.03986328 19.55427246 116.31605469 19.08984375 115.5703125 C18.68628662 114.92852051 18.28272949 114.28672852 17.86694336 113.62548828 C17 112 17 112 17 110 C16.34 110 15.68 110 15 110 C14.06113338 108.29241735 13.12397477 106.58389556 12.1875 104.875 C11.66542969 103.92367187 11.14335937 102.97234375 10.60546875 101.9921875 C9.56362996 100.05046362 8.55599353 98.08984824 7.58984375 96.109375 C5.34604112 91.72100425 2.74269274 87.57369592 0.140625 83.390625 C-1.76281846 80.27704531 -3.24505661 77.56766907 -4 74 C-4.66 74 -5.32 74 -6 74 C-9.76034791 69.19084757 -12.32225432 63.45112514 -15 58 C-15.33 57.67 -15.66 57.34 -16 57 C-16.04080783 55.00041636 -16.04254356 52.99954746 -16 51 C-15.01 50.67 -14.02 50.34 -13 50 C-13 49.34 -13 48.68 -13 48 C-11.390625 46.44921875 -11.390625 46.44921875 -9.25 44.6875 C-3.14324157 39.45313563 1.23933591 34.06016117 2.27319336 25.82348633 C2.3653418 23.58270608 2.36442676 21.36698603 2.3125 19.125 C2.30412109 18.34141113 2.29574219 17.55782227 2.28710938 16.75048828 C2.16845449 11.01589767 1.55873535 5.53907741 0 0 Z " fill="#E77724" transform="translate(411,454)"/>
<path d="M0 0 C1.35348541 -0.0146228 1.35348541 -0.0146228 2.73431396 -0.02954102 C40.40480249 -0.35285816 40.40480249 -0.35285816 58.53515625 4.23828125 C59.70038818 4.52711182 59.70038818 4.52711182 60.88916016 4.82177734 C65.84634541 6.08669969 70.69686247 7.57912918 75.53515625 9.23828125 C76.53119873 9.57448486 76.53119873 9.57448486 77.54736328 9.91748047 C94.59104919 15.74680775 111.51156472 23.81813339 125.53515625 35.23828125 C126.46070313 35.92664063 127.38625 36.615 128.33984375 37.32421875 C146.42411635 50.80689527 163.4831245 66.90801254 174.9140625 86.50390625 C176.0322332 88.3899773 177.18856189 90.25376517 178.375 92.09765625 C204.25850888 132.48618099 212.10686966 184.15371669 202.9765625 231.08984375 C197.54811281 255.52768015 187.79799352 281.17769553 172.53515625 301.23828125 C172.15149902 301.75213379 171.7678418 302.26598633 171.37255859 302.79541016 C168.48777143 306.65894398 165.52843461 310.45846503 162.53515625 314.23828125 C161.73464844 315.25792969 160.93414063 316.27757812 160.109375 317.328125 C156.21031321 322.21014354 152.47340482 326.4223619 147.53515625 330.23828125 C145.85750697 331.89389245 144.19191728 333.56176748 142.53515625 335.23828125 C108.95803996 368.6994144 58.53304216 385.15179274 11.91015625 385.48828125 C8.78204285 385.45927845 5.66061475 385.3685638 2.53515625 385.23828125 C1.7968457 385.20782715 1.05853516 385.17737305 0.29785156 385.14599609 C-27.05358187 383.73458045 -54.51019299 374.21863388 -78.46484375 361.23828125 C-79.08762207 360.90151367 -79.71040039 360.56474609 -80.35205078 360.21777344 C-125.32377533 335.67918662 -157.18630283 293.16041475 -171.60839844 244.33935547 C-185.11236295 195.44330152 -179.64100564 142.22901137 -154.6015625 97.8359375 C-145.45505376 82.1728103 -134.46084555 67.90938301 -121.46484375 55.23828125 C-120.60439453 54.31015625 -120.60439453 54.31015625 -119.7265625 53.36328125 C-113.23713133 46.5194367 -105.8681102 41.13649864 -98.27319336 35.60742188 C-96.67260191 34.39557945 -95.15100075 33.08093478 -93.64453125 31.75390625 C-89.46474893 28.21678917 -84.58390288 25.80961092 -79.77734375 23.23828125 C-78.84728516 22.73039062 -77.91722656 22.2225 -76.95898438 21.69921875 C-67.25347127 16.45299545 -57.5019301 11.9716872 -46.96484375 8.67578125 C-46.02503662 8.37913574 -45.08522949 8.08249023 -44.11694336 7.77685547 C-29.76266805 3.36071196 -15.05225667 0.13407994 0 0 Z M-78.46484375 33.23828125 C-79.03912109 33.6029248 -79.61339844 33.96756836 -80.20507812 34.34326172 C-89.74539426 40.42888846 -98.67089719 47.12586452 -107.46484375 54.23828125 C-108.42132813 54.96273437 -109.3778125 55.6871875 -110.36328125 56.43359375 C-111.05679688 57.02914062 -111.7503125 57.6246875 -112.46484375 58.23828125 C-112.46484375 58.89828125 -112.46484375 59.55828125 -112.46484375 60.23828125 C-113.03589844 60.47417969 -113.60695313 60.71007812 -114.1953125 60.953125 C-133.49653483 71.88273282 -151.72155547 107.11820144 -157.96484375 127.55078125 C-158.46762477 129.44587894 -158.96809236 131.34159412 -159.46484375 133.23828125 C-159.94435772 134.51698517 -160.44268258 135.78889176 -160.96484375 137.05078125 C-162.48077346 140.96072018 -163.50425288 144.99015253 -164.52734375 149.05078125 C-164.77097656 150.010448 -164.77097656 150.010448 -165.01953125 150.98950195 C-167.32381108 160.36937273 -168.77513207 169.42793911 -168.765625 179.1015625 C-168.76991013 180.09600876 -168.77419525 181.09045502 -168.77861023 182.11503601 C-168.78431056 184.20322921 -168.78488585 186.29144226 -168.78051758 188.37963867 C-168.7773618 191.53274262 -168.80085753 194.68490241 -168.82617188 197.83789062 C-168.85961496 208.77442729 -168.32779415 218.63685147 -165.46484375 229.23828125 C-165.15695695 230.86028623 -164.86204419 232.48490741 -164.58984375 234.11328125 C-159.81305363 257.88072476 -148.35255403 282.22960632 -133.46484375 301.23828125 C-132.33369141 302.79869141 -132.33369141 302.79869141 -131.1796875 304.390625 C-127.27930442 309.76260503 -123.68686253 314.17671109 -118.46484375 318.23828125 C-117.44182365 319.38481559 -116.44281668 320.55308925 -115.46484375 321.73828125 C-112.73019547 325.03699537 -109.79503744 327.54578423 -106.46484375 330.23828125 C-105.7171875 331.00527344 -104.96953125 331.77226563 -104.19921875 332.5625 C-93.92230194 342.61919716 -81.1443467 349.68720473 -68.46484375 356.23828125 C-67.5222168 356.73303955 -67.5222168 356.73303955 -66.56054688 357.23779297 C-31.78192028 375.29737839 9.36328416 379.32370853 47.53515625 372.23828125 C48.72214111 372.0374292 48.72214111 372.0374292 49.93310547 371.83251953 C69.00347277 368.60390204 86.57662618 361.40440744 103.53515625 352.23828125 C104.55480469 351.69816406 105.57445312 351.15804688 106.625 350.6015625 C130.45465121 337.39129948 151.3807825 316.77826259 166.53515625 294.23828125 C167.24176392 293.24356812 167.24176392 293.24356812 167.96264648 292.22875977 C194.03406569 254.82670598 202.29578514 204.60413258 194.91015625 160.11328125 C191.84341504 143.79273867 186.82641363 128.15095304 179.53515625 113.23828125 C179.15842773 112.46564941 178.78169922 111.69301758 178.39355469 110.89697266 C173.80466633 101.59882559 169.04013174 92.89671004 162.54296875 84.78125 C160.53515625 82.23828125 160.53515625 82.23828125 158.60546875 79.28125 C156.40696929 76.0498706 153.95004242 73.20620032 151.28515625 70.36328125 C150.80570557 69.84733398 150.32625488 69.33138672 149.83227539 68.79980469 C143.91399566 62.27942404 143.91399566 62.27942404 137.53515625 56.23828125 C136.87515625 56.23828125 136.21515625 56.23828125 135.53515625 56.23828125 C135.53515625 55.57828125 135.53515625 54.91828125 135.53515625 54.23828125 C132.75525309 51.64958836 129.59235282 49.48682664 126.53515625 47.23828125 C125.9942334 46.8397998 125.45331055 46.44131836 124.89599609 46.03076172 C107.99161003 33.62655206 90.36185477 24.09347515 70.53515625 17.23828125 C69.51679688 16.86960937 68.4984375 16.5009375 67.44921875 16.12109375 C64.16971095 15.01070922 60.88973626 14.09733772 57.53515625 13.23828125 C56.49077393 12.96322754 56.49077393 12.96322754 55.42529297 12.68261719 C41.36017602 9.15364919 27.32960281 8.81362089 12.91015625 8.73828125 C12.01093445 8.72792847 11.11171265 8.71757568 10.1852417 8.70690918 C-20.41113671 8.42956482 -52.56151309 16.62928037 -78.46484375 33.23828125 Z " fill="#F7F6F5" transform="translate(389.46484375,418.76171875)"/>
<path d="M0 0 C1.81762695 0.20092773 1.81762695 0.20092773 4 1 C5.50463867 3.06274414 5.50463867 3.06274414 6.91796875 5.78515625 C7.44519531 6.78224609 7.97242188 7.77933594 8.515625 8.80664062 C9.06734375 9.88107422 9.6190625 10.95550781 10.1875 12.0625 C11.35705372 14.28308918 12.52762737 16.50314147 13.69921875 18.72265625 C14.5507251 20.34905029 14.5507251 20.34905029 15.41943359 22.00830078 C17.37695661 25.71350422 19.41938972 29.36297751 21.5 33 C25.84155973 40.64005035 30.01511641 48.36949334 34.17016602 56.11230469 C36.67675673 60.77085352 39.20555371 65.40153336 41.90234375 69.953125 C42.33417969 70.68789063 42.76601563 71.42265625 43.2109375 72.1796875 C44.00576386 73.52127339 44.81363653 74.85524902 45.63671875 76.1796875 C48.14195654 80.4236351 48.14195654 80.4236351 47.48046875 83.109375 C46.99191406 83.73328125 46.50335938 84.3571875 46 85 C45.37867188 85.804375 44.75734375 86.60875 44.1171875 87.4375 C39.4754944 92.74229212 35.71732275 96.64893704 29 99 C26.4296875 98.87890625 26.4296875 98.87890625 24 98 C22.5859375 95.953125 22.5859375 95.953125 21.375 93.25 C17.28499149 85.09134073 10.91324315 77.01514812 4 71 C3.34 71 2.68 71 2 71 C-3.26091126 80.31440026 -8.45308244 89.63412197 -13.13476562 99.25585938 C-15.91033238 104.93623213 -18.95080168 110.46272068 -22 116 C-22.95356703 117.73934107 -23.90670082 119.47891974 -24.859375 121.21875 C-25.32947998 122.07710449 -25.79958496 122.93545898 -26.28393555 123.81982422 C-30.87619519 132.21513252 -35.41633156 140.63345237 -39.85839844 149.10913086 C-50.03219919 168.51862348 -60.25571674 187.89905197 -71 207 C-83.87 207 -96.74 207 -110 207 C-109.20799368 202.24796211 -108.74482919 200.00306902 -106.62890625 196.015625 C-106.14212402 195.08967529 -105.6553418 194.16372559 -105.15380859 193.2097168 C-104.62867676 192.23301025 -104.10354492 191.25630371 -103.5625 190.25 C-102.75159912 188.72016479 -102.75159912 188.72016479 -101.92431641 187.15942383 C-96.66420299 177.27489058 -91.22244039 167.49450788 -85.7265625 157.73974609 C-81.37578568 150.00887713 -77.07822273 142.28669686 -73.1875 134.3125 C-69.9793799 127.74687218 -66.44262114 121.40344673 -62.8125 115.0625 C-58.15585406 106.9282514 -53.7171601 98.7136462 -49.4375 90.375 C-43.99765479 79.78373641 -38.202167 69.44078399 -32.23486328 59.13964844 C-30.62939054 56.35784473 -29.05352111 53.56113343 -27.5 50.75 C-27.0978125 50.02296875 -26.695625 49.2959375 -26.28125 48.546875 C-25.1890921 46.37587819 -24.22526265 44.20504546 -23.26953125 41.97265625 C-20.63688849 35.9934128 -17.40715667 30.36580357 -14.1875 24.6875 C-13.30094727 23.1106543 -13.30094727 23.1106543 -12.39648438 21.50195312 C-8.33367697 14.2934606 -4.18760081 7.13659294 0 0 Z " fill="#FCFCFB" transform="translate(380,509)"/>
<path d="M0 0 C0.5775 0.309375 1.155 0.61875 1.75 0.9375 C3.84294184 1.92583364 5.74535275 2.5168613 8 3 C8 4.32 8 5.64 8 7 C14.62040996 6.88233269 21.24065705 6.75750252 27.86083984 6.62768555 C30.11308732 6.58436686 32.36536699 6.54268958 34.61767578 6.50268555 C37.85459089 6.44490897 41.09134442 6.38123548 44.328125 6.31640625 C45.83925873 6.29133751 45.83925873 6.29133751 47.38092041 6.26576233 C48.32159363 6.24581711 49.26226685 6.22587189 50.23144531 6.20532227 C51.05751282 6.18977798 51.88358032 6.1742337 52.73468018 6.15821838 C54.93589488 6.00447734 56.88279793 5.60602394 59 5 C59 6.32 59 7.64 59 9 C49.14904983 10.22879735 39.34202386 10.08251314 29.4375 10 C26.18620165 9.97343555 22.93495925 9.95348631 19.68359375 9.9375 C18.56965492 9.92505249 18.56965492 9.92505249 17.43321228 9.91235352 C13.59020222 9.82062999 13.59020222 9.82062999 10 11 C15.27375575 12.06003245 20.41656517 12.21555735 25.7734375 12.31640625 C26.6971817 12.33718735 27.6209259 12.35796844 28.57266235 12.37937927 C31.50670344 12.44446119 34.44082962 12.50356643 37.375 12.5625 C39.37110235 12.6057246 41.36719627 12.64934012 43.36328125 12.69335938 C48.24210156 12.8000999 53.12100699 12.90148248 58 13 C58 13.33 58 13.66 58 14 C57.07371796 13.99880661 57.07371796 13.99880661 56.12872314 13.99758911 C49.70444639 13.99515237 43.28137973 14.03429667 36.85742188 14.09765625 C34.45969261 14.1158307 32.06185842 14.12338216 29.6640625 14.12011719 C26.21792195 14.11726442 22.77396374 14.15253731 19.328125 14.1953125 C18.25508118 14.18621857 17.18203735 14.17712463 16.07647705 14.16775513 C13.25698267 14.22288522 10.73827664 14.32510307 8 15 C5.26622448 17.71645978 5.26622448 17.71645978 4 21 C3.51917969 21.84820313 3.03835938 22.69640625 2.54296875 23.5703125 C2.09566406 24.41335938 1.64835937 25.25640625 1.1875 26.125 C-3.50313605 34.83280546 -8.54159267 43.3317295 -13.73828125 51.74609375 C-15.05700833 54.10183841 -16.05147178 56.47504461 -17 59 C-17.66 59 -18.32 59 -19 59 C-19.268125 59.763125 -19.53625 60.52625 -19.8125 61.3125 C-20.94424112 63.87380884 -21.91223401 65.19692938 -24 67 C-24 65.68 -24 64.36 -24 63 C-23.34 63 -22.68 63 -22 63 C-21.690625 62.05125 -21.38125 61.1025 -21.0625 60.125 C-20 57 -20 57 -19 55 C-18.34 55 -17.68 55 -17 55 C-17 53.68 -17 52.36 -17 51 C-18.485 51.495 -18.485 51.495 -20 52 C-20.33 51.34 -20.66 50.68 -21 50 C-20.34 50 -19.68 50 -19 50 C-19 48.68 -19 47.36 -19 46 C-17.35 46.33 -15.7 46.66 -14 47 C-13.731875 46.071875 -13.46375 45.14375 -13.1875 44.1875 C-12.09022755 41.24218975 -11.46642831 39.84982123 -9 38 C-8.34 38 -7.68 38 -7 38 C-6.731875 36.906875 -6.46375 35.81375 -6.1875 34.6875 C-5.01920498 31.05963652 -4.5466911 30.44482345 -2 28 C0.19939967 23.42524869 1.70019861 18.8992514 3 14 C1.68 14.99 0.36 15.98 -1 17 C-1 15.68 -1 14.36 -1 13 C-0.34 13 0.32 13 1 13 C1 12.34 1 11.68 1 11 C0.01 11 -0.98 11 -2 11 C-1.85892253 9.54119891 -1.71197585 8.08296449 -1.5625 6.625 C-1.48128906 5.81289063 -1.40007812 5.00078125 -1.31640625 4.1640625 C-1 2 -1 2 0 0 Z " fill="#554D3E" transform="translate(360,621)"/>
<path d="M0 0 C3.52793877 2.35195918 3.5279367 3.15627916 5 7 C6.28981209 9.35921325 7.62495163 11.68741681 8.9765625 14.01171875 C10 16 10 16 10 18 C10.66 18 11.32 18 12 18 C13.39420529 20.03503956 14.64526518 22.05424226 15.875 24.1875 C16.257771 24.84516357 16.64054199 25.50282715 17.03491211 26.18041992 C17.88588501 27.64459142 18.73428484 29.11026039 19.58056641 30.57714844 C21.10587992 33.18072796 22.68108097 35.74998151 24.26171875 38.3203125 C25.36280716 40.15054379 26.46307491 41.98126906 27.5625 43.8125 C28.0992334 44.67061279 28.6359668 45.52872559 29.18896484 46.4128418 C32.70704553 52.37025468 33.94987558 57.09125372 33 64 C31.30295415 69.56253917 28.28420538 74.07380621 24 78 C23.34 78 22.68 78 22 78 C22.33 76.35 22.66 74.7 23 73 C24.485 72.505 24.485 72.505 26 72 C26.33 70.02 26.66 68.04 27 66 C25.515 65.01 25.515 65.01 24 64 C24 63.34 24 62.68 24 62 C25.65 62 27.3 62 29 62 C29 62.99 29 63.98 29 65 C29.66 65 30.32 65 31 65 C31 61.04 31 57.08 31 53 C30.34 53 29.68 53 29 53 C26 47.25 26 47.25 26 45 C25.01 45 24.02 45 23 45 C22.731875 43.906875 22.46375 42.81375 22.1875 41.6875 C21.12336261 38.38307337 20.65345336 37.05039578 18 35 C18 35.66 18 36.32 18 37 C18.66 37.66 19.32 38.32 20 39 C19.34 39.66 18.68 40.32 18 41 C17.34 41 16.68 41 16 41 C15.505 41.495 15.01 41.99 14.5 42.5 C14.005 42.995 13.51 43.49 13 44 C12.34 44 11.68 44 11 44 C9.49480613 41.37785672 7.99568681 38.75255792 6.5 36.125 C6.07074219 35.37863281 5.64148438 34.63226562 5.19921875 33.86328125 C4.79316406 33.14785156 4.38710938 32.43242188 3.96875 31.6953125 C3.59169922 31.03547363 3.21464844 30.37563477 2.82617188 29.69580078 C2 28 2 28 2 26 C2.928125 25.87625 2.928125 25.87625 3.875 25.75 C6.18437567 25.18741541 6.18437567 25.18741541 7.25 22.9375 C7.62125 21.9784375 7.62125 21.9784375 8 21 C8 22.65 8 24.3 8 26 C8.99 26 9.98 26 11 26 C10.67 24.02 10.34 22.04 10 20 C9.01 19.67 8.02 19.34 7 19 C5.8125 15.4375 5.8125 15.4375 5 12 C4.01 12.66 3.02 13.32 2 14 C1.01 14 0.02 14 -1 14 C-1 12.68 -1 11.36 -1 10 C-0.01 10 0.98 10 2 10 C1.505 8.63875 1.505 8.63875 1 7.25 C0 4 0 4 0 0 Z " fill="#565145" transform="translate(416,546)"/>
<path d="M0 0 C0.99 0.33 1.98 0.66 3 1 C3 1.66 3 2.32 3 3 C3.66 3 4.32 3 5 3 C5 4.32 5 5.64 5 7 C6.32 7 7.64 7 9 7 C9.18175781 7.93972656 9.18175781 7.93972656 9.3671875 8.8984375 C9.53476562 9.71570313 9.70234375 10.53296875 9.875 11.375 C10.11863281 12.59316406 10.11863281 12.59316406 10.3671875 13.8359375 C10.86658932 16.18673923 10.86658932 16.18673923 13 18 C13.46019531 19.15435547 13.46019531 19.15435547 13.9296875 20.33203125 C15.04055995 23.10110383 16.41294396 25.25174877 18.125 27.6875 C21 31.77990431 21 31.77990431 21 34 C22.98 33.505 22.98 33.505 25 33 C25.103125 34.2375 25.20625 35.475 25.3125 36.75 C25.76472405 40.38053112 26.57695742 42.20418163 29 45 C29.433125 45.886875 29.86625 46.77375 30.3125 47.6875 C32.16054839 51.31515054 34.35235205 54.5294544 36.6953125 57.8515625 C39.69380959 62.78920741 39.56164214 68.3835786 39 74 C36.93765964 82.43973134 28.93718482 88.95762665 21.83203125 93.3359375 C18.67497095 94.80339836 17.36652054 95.12217351 14 94 C15.95519384 92.82807953 17.9142539 91.6626071 19.875 90.5 C20.96554687 89.8503125 22.05609375 89.200625 23.1796875 88.53125 C26 87 26 87 28 87 C28.268125 86.360625 28.53625 85.72125 28.8125 85.0625 C30 83 30 83 33 82 C36.11828482 76.3665554 37.42340558 69.25793104 36 63 C33.43434364 57.39493298 30.25692714 52.22512581 27 47 C25.47492759 44.52052105 23.95312863 42.03906842 22.43286133 39.55664062 C21.44765261 37.95457061 20.45545335 36.35677539 19.45581055 34.76367188 C19.0050415 34.03986328 18.55427246 33.31605469 18.08984375 32.5703125 C17.68628662 31.92852051 17.28272949 31.28672852 16.86694336 30.62548828 C16 29 16 29 16 27 C15.34 27 14.68 27 14 27 C8.39496782 16.80573435 8.39496782 16.80573435 6.4375 12.8125 C4.81690664 9.64177385 2.94213685 6.7083853 0.98828125 3.734375 C0 2 0 2 0 0 Z " fill="#D07B39" transform="translate(412,537)"/>
<path d="M0 0 C3.42945852 3.03459549 5.02007182 5.81765917 6.6875 10.0625 C7.10386719 11.10535156 7.52023437 12.14820313 7.94921875 13.22265625 C10.03629845 18.73906394 10.21763715 23.21695935 10.25 29.0625 C10.270625 29.96677734 10.29125 30.87105469 10.3125 31.80273438 C10.3624047 40.52981859 8.8553603 48.33061144 3.4375 55.375 C1.01126097 58.49095272 1.01126097 58.49095272 -0.80078125 61.9609375 C-2.68937943 65.17216958 -5.67171463 67.07920904 -8.625 69.25 C-9.54152344 69.93835938 -9.54152344 69.93835938 -10.4765625 70.640625 C-11.9790792 71.76751252 -13.48884409 72.88472437 -15 74 C-13.49427188 82.48419881 -8.57558067 89.50854678 -4.0859375 96.72021484 C-2.19542769 99.79865864 -0.74943275 102.47019585 0 106 C-0.66 105.67 -1.32 105.34 -2 105 C-2 104.34 -2 103.68 -2 103 C-2.66 103 -3.32 103 -4 103 C-8.58923347 94.83733177 -8.58923347 94.83733177 -10.625 90.6875 C-11.89260317 88.01712244 -11.89260317 88.01712244 -13.5625 85.9375 C-16.82010563 81.54681414 -17.69090979 77.42857695 -17 72 C-14.6875 69.6875 -14.6875 69.6875 -12 68 C-8.81724921 66.26459264 -8.81724921 66.26459264 -7.75 63.1875 C-6.01951167 60.03553911 -5.49127948 59.49334315 -2.625 57.75 C3.67404559 53.60834423 5.9334025 46.16577575 7.60083008 39.11254883 C9.65170293 28.25860215 8.5884391 17.63582378 3 8 C2.34 7.34 1.68 6.68 1 6 C0.60235737 4.01178687 0.26224651 2.01055661 0 0 Z " fill="#CD7C3C" transform="translate(481,576)"/>
<path d="M0 0 C0.64453125 1.78515625 0.64453125 1.78515625 1 4 C0.07421875 5.74609375 0.07421875 5.74609375 -1.3125 7.4375 C-3.53457849 10.18167143 -4.70135287 12.72200222 -6 16 C-7.72397749 19.05762045 -9.53335693 22.05540643 -11.34375 25.0625 C-13.06222442 27.87271329 -13.06222442 27.87271329 -13.84375 30.6875 C-15.55374451 34.10748903 -17.45679671 34.62750761 -21 36 C-24.12810866 36.33059785 -27.19741704 36.21314055 -30.3359375 36.07421875 C-31.65496567 36.03455742 -31.65496567 36.03455742 -33.00064087 35.99409485 C-35.79281678 35.90674139 -38.58363178 35.79745133 -41.375 35.6875 C-43.27469174 35.62419853 -45.17443194 35.56233395 -47.07421875 35.50195312 C-51.71687185 35.35126667 -56.35843037 35.18091032 -61 35 C-61 34.34 -61 33.68 -61 33 C-59.76958984 33.03778564 -58.53917969 33.07557129 -57.27148438 33.11450195 C-52.67901597 33.23812045 -48.08912139 33.27514198 -43.49511719 33.28686523 C-41.51235704 33.30383539 -39.52964854 33.34387673 -37.54785156 33.40795898 C-26.9463852 34.18790175 -26.9463852 34.18790175 -17.3269043 30.7461853 C-14.25040263 27.27743379 -12.61558132 23.32690392 -11 19 C-10.17076777 17.22724253 -9.33805473 15.4561038 -8.5 13.6875 C-8.005 12.470625 -7.51 11.25375 -7 10 C-6.34 10 -5.68 10 -5 10 C-4.731875 9.0925 -4.46375 8.185 -4.1875 7.25 C-3.10423706 4.28528037 -2.01640543 2.3830246 0 0 Z " fill="#6C4C2F" transform="translate(381,688)"/>
<path d="M0 0 C0.99 0.33 1.98 0.66 3 1 C1.625 2.5 1.625 2.5 0 4 C-0.66 4 -1.32 4 -2 4 C-2 4.66 -2 5.32 -2 6 C-2.99 6.495 -2.99 6.495 -4 7 C-4.51206942 12.37672887 -3.13090095 14.70619298 0 19 C1.90526393 22.59068971 3.54860772 26.20405097 5 30 C5.66 30 6.32 30 7 30 C7.96189997 31.72718516 8.91936508 33.45684058 9.875 35.1875 C10.67550781 36.63189453 10.67550781 36.63189453 11.4921875 38.10546875 C12.8423678 40.69739518 13.97098329 43.26761098 15 46 C13.515 45.505 13.515 45.505 12 45 C12 44.01 12 43.02 12 42 C11.34 42 10.68 42 10 42 C9.566875 41.0409375 9.566875 41.0409375 9.125 40.0625 C8.17176549 37.84793921 8.17176549 37.84793921 6 37 C6 38.65 6 40.3 6 42 C4.515 42.495 4.515 42.495 3 43 C2.67 41.35 2.34 39.7 2 38 C0.68 38 -0.64 38 -2 38 C-1.57270986 35.52171717 -1.28174873 34.27047878 0.5625 32.5 C2.46127024 30.86494057 2.46127024 30.86494057 2 27 C1.34 26.67 0.68 26.34 0 26 C-0.66666667 24.33333333 -1.33333333 22.66666667 -2 21 C-2.66 20.67 -3.32 20.34 -4 20 C-4.69258229 18.00882592 -5.35747635 16.0078864 -6 14 C-6.66 13.01 -7.32 12.02 -8 11 C-7.85304966 7.4731918 -7.65479597 5.65479597 -5.125 3.125 C-3 2 -3 2 0 2 C0 1.34 0 0.68 0 0 Z " fill="#584F3B" transform="translate(400,498)"/>
<path d="M0 0 C-6.21261718 3.29997553 -11.56331476 3.41194136 -18.515625 3.37109375 C-20.75781414 3.38846137 -23.00000161 3.40604588 -25.2421875 3.42382812 C-28.76012079 3.43393713 -32.27795115 3.43748653 -35.79589844 3.43579102 C-39.20278596 3.43934677 -42.60887829 3.46661986 -46.015625 3.49609375 C-47.07187073 3.48791122 -48.12811646 3.4797287 -49.21636963 3.47129822 C-50.19458679 3.48133377 -51.17280396 3.49136932 -52.18066406 3.50170898 C-53.04113342 3.50154282 -53.90160278 3.50137665 -54.78814697 3.50120544 C-57.14973274 3.81615882 -57.14973274 3.81615882 -58.715271 5.83192444 C-60.08499405 8.14343376 -61.10459586 10.52078927 -62.11328125 13.0078125 C-63.12659741 15.2844259 -64.32202625 17.40167477 -65.5625 19.5625 C-67.49256171 22.95754832 -68.93456981 26.22256569 -70 30 C-70.66 30 -71.32 30 -72 30 C-74.94033413 35.57765673 -77.53012914 40.85326729 -79 47 C-80.32 47 -81.64 47 -83 47 C-80.16504922 36.94881087 -73.66454867 28.0461679 -68.28515625 19.19726562 C-66.18106329 15.7161903 -64.13867402 12.27767054 -62.3203125 8.63671875 C-61.03788907 6.07566604 -59.94471796 4.10018741 -58 2 C-55.74104309 1.51898193 -55.74104309 1.51898193 -53.06958008 1.54589844 C-52.06876907 1.54620056 -51.06795807 1.54650269 -50.03681946 1.54681396 C-48.4195118 1.57778168 -48.4195118 1.57778168 -46.76953125 1.609375 C-45.11119514 1.61786469 -45.11119514 1.61786469 -43.4193573 1.62652588 C-39.88330036 1.64894205 -36.34825141 1.69915004 -32.8125 1.75 C-30.41733233 1.77005813 -28.02214879 1.78831009 -25.62695312 1.8046875 C-19.75095733 1.848824 -13.87555067 1.91578872 -8 2 C-8 1.34 -8 0.68 -8 0 C-4.94736336 -0.98120464 -3.05263664 -0.98120464 0 0 Z " fill="#C2783D" transform="translate(426,633)"/>
<path d="M0 0 C3.33511388 2.9901021 5.21521119 5.89498574 7 10 C7 10.66 7 11.32 7 12 C7.66 12 8.32 12 9 12 C10.33858524 14.28874173 11.67101014 16.58069656 13 18.875 C13.3815625 19.52597656 13.763125 20.17695313 14.15625 20.84765625 C17 25.7734375 17 25.7734375 17 28 C16.34 28 15.68 28 15 28 C14.34 27.01 13.68 26.02 13 25 C10.69 25.33 8.38 25.66 6 26 C6.66 25.01 7.32 24.02 8 23 C8.99 23 9.98 23 11 23 C10.34 21.35 9.68 19.7 9 18 C6.91970811 21.02587911 5.73545647 23.70068962 4.9375 27.25 C4.628125 28.4875 4.31875 29.725 4 31 C3.34 31.33 2.68 31.66 2 32 C2.01047363 31.38592285 2.02094727 30.7718457 2.03173828 30.13916016 C2.07384209 27.30115003 2.09949622 24.46320599 2.125 21.625 C2.14175781 20.65949219 2.15851563 19.69398438 2.17578125 18.69921875 C2.21924836 12.22261957 1.53232671 6.293423 0 0 Z " fill="#DA772E" transform="translate(411,454)"/>
<path d="M0 0 C9.33575437 12.12010217 16.24588751 26.59799897 23.421875 40.078125 C25.28615084 43.52980403 27.24740957 46.9198555 29.25 50.29296875 C29.4975 50.85628906 29.745 51.41960938 30 52 C29.67 52.66 29.34 53.32 29 54 C25.56074744 51.70716496 25.38988313 50.73531091 24 47 C23.46375 46.113125 22.9275 45.22625 22.375 44.3125 C21 42 21 42 21 40 C20.34 40 19.68 40 19 40 C19 38.68 19 37.36 19 36 C18.34 36 17.68 36 17 36 C17 34.68 17 33.36 17 32 C16.34 32 15.68 32 15 32 C13.23537317 28.91190305 13 27.76687864 13 24 C12.01 23.67 11.02 23.34 10 23 C9.02000259 21.17517723 8.05525274 19.33992224 7.18359375 17.4609375 C5.37651316 13.70364123 3.25523266 10.12540313 1.171875 6.515625 C0 4 0 4 0 0 Z " fill="#C9793A" transform="translate(450,520)"/>
<path d="M0 0 C3.84443981 2.56295987 4.22686465 4.34171272 5.4296875 8.671875 C6.15202159 12.88713969 6.29386907 16.97961813 6.3125 21.25 C6.31789795 22.01828125 6.3232959 22.7865625 6.32885742 23.578125 C6.27254195 28.09119823 5.69774308 31.75226033 4 36 C2.95550089 32.86650268 3.06576355 32.01031744 4 29 C2.68 28.67 1.36 28.34 0 28 C-0.05454409 25.64551325 -0.0939279 23.29232125 -0.125 20.9375 C-0.14820313 19.62652344 -0.17140625 18.31554687 -0.1953125 16.96484375 C0.00582478 12.88175701 0.72834538 9.85000947 2 6 C1.34 6 0.68 6 0 6 C0 4.02 0 2.04 0 0 Z " fill="#594D3A" transform="translate(408,452)"/>
<path d="M0 0 C0.81700882 0.0028299 1.63401764 0.00565979 2.4757843 0.00857544 C5.08426584 0.01976709 7.69240355 0.0448696 10.30078125 0.0703125 C12.0696565 0.08034362 13.83853713 0.08946924 15.60742188 0.09765625 C19.94284074 0.11970308 24.2780027 0.1542258 28.61328125 0.1953125 C28.61328125 0.5253125 28.61328125 0.8553125 28.61328125 1.1953125 C27.02459229 1.16219971 27.02459229 1.16219971 25.40380859 1.12841797 C21.45597687 1.05943224 17.51033441 1.05659218 13.56201172 1.07324219 C11.85681908 1.07130116 10.15154778 1.05166484 8.44677734 1.01367188 C-1.2247056 0.45372325 -1.2247056 0.45372325 -9.671875 4.14111328 C-11.25471611 6.76359321 -12.31930987 9.32723986 -13.38671875 12.1953125 C-14.33101657 13.92279726 -15.30502849 15.63438395 -16.30859375 17.328125 C-17.74370759 19.85835326 -19.17558292 22.38991376 -20.59375 24.9296875 C-21.05652344 25.74179687 -21.51929688 26.55390625 -21.99609375 27.390625 C-22.40827148 28.12297363 -22.82044922 28.85532227 -23.24511719 29.60986328 C-23.6218457 30.13306152 -23.99857422 30.65625977 -24.38671875 31.1953125 C-25.04671875 31.1953125 -25.70671875 31.1953125 -26.38671875 31.1953125 C-27.01171875 28.3203125 -27.01171875 28.3203125 -27.38671875 25.1953125 C-26.72671875 24.5353125 -26.06671875 23.8753125 -25.38671875 23.1953125 C-24.06671875 23.1953125 -22.74671875 23.1953125 -21.38671875 23.1953125 C-21.59296875 22.0815625 -21.79921875 20.9678125 -22.01171875 19.8203125 C-22.13546875 18.6240625 -22.25921875 17.4278125 -22.38671875 16.1953125 C-21.72671875 15.5353125 -21.06671875 14.8753125 -20.38671875 14.1953125 C-19.06671875 14.1953125 -17.74671875 14.1953125 -16.38671875 14.1953125 C-16.38671875 13.2053125 -16.38671875 12.2153125 -16.38671875 11.1953125 C-15.72671875 11.1953125 -15.06671875 11.1953125 -14.38671875 11.1953125 C-14.20496094 10.56882812 -14.02320313 9.94234375 -13.8359375 9.296875 C-13.58457031 8.47960937 -13.33320313 7.66234375 -13.07421875 6.8203125 C-12.83058594 6.00820313 -12.58695312 5.19609375 -12.3359375 4.359375 C-9.98456227 -1.00137346 -4.98499861 -0.06482114 0 0 Z " fill="#DA7A31" transform="translate(400.38671875,666.8046875)"/>
<path d="M0 0 C0 3.3123425 -0.54953125 4.30710645 -2.1953125 7.09765625 C-2.89442749 8.29334229 -2.89442749 8.29334229 -3.60766602 9.51318359 C-4.10838623 10.35445801 -4.60910645 11.19573242 -5.125 12.0625 C-5.62765381 12.91924316 -6.13030762 13.77598633 -6.64819336 14.65869141 C-9.67190299 19.80187843 -12.72851711 24.92538953 -15.87890625 29.9921875 C-17.14470712 32.25916188 -18.08268911 34.57356473 -19 37 C-19.66 37 -20.32 37 -21 37 C-21.268125 37.763125 -21.53625 38.52625 -21.8125 39.3125 C-22.94424112 41.87380884 -23.91223401 43.19692938 -26 45 C-26 43.68 -26 42.36 -26 41 C-25.34 41 -24.68 41 -24 41 C-23.690625 40.05125 -23.38125 39.1025 -23.0625 38.125 C-22 35 -22 35 -21 33 C-20.34 33 -19.68 33 -19 33 C-19 31.68 -19 30.36 -19 29 C-19.99 29.33 -20.98 29.66 -22 30 C-22.33 29.34 -22.66 28.68 -23 28 C-22.34 28 -21.68 28 -21 28 C-21 26.68 -21 25.36 -21 24 C-19.35 24.33 -17.7 24.66 -16 25 C-15.731875 24.071875 -15.46375 23.14375 -15.1875 22.1875 C-14.09022755 19.24218975 -13.46642831 17.84982123 -11 16 C-10.34 16 -9.68 16 -9 16 C-8.731875 14.906875 -8.46375 13.81375 -8.1875 12.6875 C-7.04763011 9.14790402 -6.5600561 8.3467181 -4 6 C-3.32650839 4.33607955 -2.6590841 2.66967972 -2 1 C-1.34 0.67 -0.68 0.34 0 0 Z " fill="#5E4C38" transform="translate(362,643)"/>
<path d="M0 0 C3.05587153 2.81928793 5.02014698 5.50681955 6.9375 9.1875 C8.3891518 11.97260294 9.81785729 14.71180553 11.49609375 17.3671875 C15.00440215 22.952653 15.98273991 27.43748125 15 34 C13.30295415 39.56253917 10.28420538 44.07380621 6 48 C5.34 48 4.68 48 4 48 C4.33 46.35 4.66 44.7 5 43 C6.485 42.505 6.485 42.505 8 42 C8.495 39.03 8.495 39.03 9 36 C8.01 35.34 7.02 34.68 6 34 C6 33.34 6 32.68 6 32 C7.65 32 9.3 32 11 32 C11 32.99 11 33.98 11 35 C11.66 35 12.32 35 13 35 C13 31.04 13 27.08 13 23 C12.34 23 11.68 23 11 23 C8 17.25 8 17.25 8 15 C7.01 15 6.02 15 5 15 C4.731875 13.9275 4.46375 12.855 4.1875 11.75 C3.11059366 8.34924314 2.08378873 6.74681242 0 4 C0 2.68 0 1.36 0 0 Z " fill="#5C4B36" transform="translate(434,576)"/>
<path d="M0 0 C1 2 1 2 0.546875 4.0234375 C-0.87133971 8.20856131 -2.15666607 11.56430484 -5 15 C-7.1384808 18.8657153 -8.11653736 21.58268678 -9 26 C3.54 26 16.08 26 29 26 C29.33 24.68 29.66 23.36 30 22 C30.66 21.01 31.32 20.02 32 19 C32.66 19.33 33.32 19.66 34 20 C32.67905511 23.01939432 31.25626447 25.58032796 29 28 C25.76702132 29.11291713 22.71184785 28.93790514 19.32421875 28.78125 C18.3990596 28.76993042 17.47390045 28.75861084 16.52070618 28.74694824 C13.57417087 28.70226534 10.63255613 28.60192668 7.6875 28.5 C5.6869194 28.45986215 3.68626227 28.4233619 1.68554688 28.390625 C-3.21152285 28.30255706 -8.10492822 28.16457214 -13 28 C-12.03835782 20.39689572 -12.03835782 20.39689572 -9.3125 16.8125 C-5.53851689 11.53075124 -2.78961121 5.84631285 0 0 Z " fill="#C8793B" transform="translate(333,693)"/>
<path d="M0 0 C3.875 3.75 3.875 3.75 5 6 C18.2 6 31.4 6 45 6 C45.33 4.68 45.66 3.36 46 2 C46.66 2 47.32 2 48 2 C48.375 4.75 48.375 4.75 48 8 C45 10.375 45 10.375 42 12 C41.34 11.67 40.68 11.34 40 11 C40 10.34 40 9.68 40 9 C27.79 9 15.58 9 3 9 C0 3 0 3 0 0 Z " fill="#764D2C" transform="translate(456,714)"/>
<path d="M0 0 C1.66781549 0.04457233 3.33580599 0.08303608 5.00390625 0.11523438 C16.83939579 0.47803453 16.83939579 0.47803453 19.5378418 2.4855957 C20.84184455 4.37702929 21.9810388 6.28431703 23.0625 8.3125 C23.70058594 9.49392578 23.70058594 9.49392578 24.3515625 10.69921875 C24.98191406 11.86904297 24.98191406 11.86904297 25.625 13.0625 C26.94648646 15.40280988 28.28621244 17.73201795 29.625 20.0625 C28.635 20.0625 27.645 20.0625 26.625 20.0625 C25.0546875 18.26953125 25.0546875 18.26953125 23.5 15.875 C22.98179687 15.09769531 22.46359375 14.32039062 21.9296875 13.51953125 C20.59045513 10.99744394 20.03453855 8.87433174 19.625 6.0625 C18.6659375 5.876875 18.6659375 5.876875 17.6875 5.6875 C16.6665625 5.378125 16.6665625 5.378125 15.625 5.0625 C15.13 4.0725 15.13 4.0725 14.625 3.0625 C4.065 2.7325 -6.495 2.4025 -17.375 2.0625 C-18.035 3.7125 -18.695 5.3625 -19.375 7.0625 C-20.63682389 9.44338669 -22.00804501 11.73867651 -23.375 14.0625 C-24.035 14.0625 -24.695 14.0625 -25.375 14.0625 C-25.705 15.0525 -26.035 16.0425 -26.375 17.0625 C-26.705 16.4025 -27.035 15.7425 -27.375 15.0625 C-21.87254078 0.59798435 -14.49001439 -0.92577469 0 0 Z " fill="#79522E" transform="translate(411.375,666.9375)"/>
<path d="M0 0 C0.33 0 0.66 0 1 0 C1 1.98 1 3.96 1 6 C0.01 6.33 -0.98 6.66 -2 7 C-2 7.66 -2 8.32 -2 9 C-2.66 9 -3.32 9 -4 9 C-4 10.65 -4 12.3 -4 14 C-4.99 14 -5.98 14 -7 14 C-7.0825 14.61875 -7.165 15.2375 -7.25 15.875 C-8 18 -8 18 -10.0625 19.25 C-10.701875 19.4975 -11.34125 19.745 -12 20 C-12 20.66 -12 21.32 -12 22 C-13.134375 22.391875 -14.26875 22.78375 -15.4375 23.1875 C-19.10984234 24.57895454 -19.10984234 24.57895454 -20 27.3125 C-20 30.31399915 -19.61434849 33.06477944 -19 36 C-21.02855159 33.97144841 -22.00835839 32.66980434 -23 30 C-22.7911175 26.56755248 -22.28862548 25.28707373 -19.8203125 22.83203125 C-18.93085938 22.16558594 -18.04140625 21.49914062 -17.125 20.8125 C-16.24070312 20.13832031 -15.35640625 19.46414063 -14.4453125 18.76953125 C-12.65687716 17.47534402 -10.83681987 16.22454658 -9 15 C-7.98063057 13.00980253 -6.98537521 11.0072458 -6 9 C-4.09526201 5.93542155 -2.15106317 2.898139 0 0 Z " fill="#63492F" transform="translate(488,624)"/>
<path d="M0 0 C0 0.66 0 1.32 0 2 C-0.99 2.495 -0.99 2.495 -2 3 C-1.9278125 3.74121094 -1.855625 4.48242188 -1.78125 5.24609375 C-1.20418365 11.79419389 -0.8702567 18.30300965 -0.8125 24.875 C-0.79316406 25.92578735 -0.79316406 25.92578735 -0.7734375 26.99780273 C-0.76442759 31.74208176 -1.52904655 35.54644133 -3 40 C-3.66 40 -4.32 40 -5 40 C-4.76023437 38.34097656 -4.76023437 38.34097656 -4.515625 36.6484375 C-3.89400652 31.63801622 -3.77924331 26.66947172 -3.75 21.625 C-3.729375 20.74328125 -3.70875 19.8615625 -3.6875 18.953125 C-3.64969359 12.50713246 -4.83629354 7.06196794 -7 1 C-4.50935112 0.31292445 -2.62113708 0 0 0 Z " fill="#715030" transform="translate(494,584)"/>
<path d="M0 0 C3.52793877 2.35195918 3.5279367 3.15627916 5 7 C6.28981209 9.35921325 7.62495163 11.68741681 8.9765625 14.01171875 C10 16 10 16 10 18 C10.66 18 11.32 18 12 18 C16 24.75 16 24.75 16 27 C14.125 26.3125 14.125 26.3125 12 25 C11.31246699 23.34183216 10.64438717 21.67540664 10 20 C9.01 19.67 8.02 19.34 7 19 C5.8125 15.4375 5.8125 15.4375 5 12 C4.01 12.66 3.02 13.32 2 14 C1.01 14 0.02 14 -1 14 C-1 12.68 -1 11.36 -1 10 C-0.01 10 0.98 10 2 10 C1.505 8.63875 1.505 8.63875 1 7.25 C0 4 0 4 0 0 Z " fill="#654C35" transform="translate(416,546)"/>
<path d="M0 0 C0.66 0 1.32 0 2 0 C2.5775 1.155 3.155 2.31 3.75 3.5 C4.11609375 4.23089844 4.4821875 4.96179688 4.859375 5.71484375 C5.58234747 7.16326463 6.30156583 8.61357049 7.015625 10.06640625 C10.6634333 18.04943022 10.6634333 18.04943022 15.98046875 24.8515625 C18.31075973 27.33059546 19.19596443 29.42627649 20.3125 32.625 C20.65925781 33.58664062 21.00601562 34.54828125 21.36328125 35.5390625 C22 38 22 38 21 40 C20.40832031 38.9378125 19.81664062 37.875625 19.20703125 36.78125 C14.4863677 28.21187728 14.4863677 28.21187728 9.375 19.875 C7.05481635 16.26039811 5.11924181 12.45662581 3.1875 8.625 C2.87280762 8.0047998 2.55811523 7.38459961 2.23388672 6.74560547 C0 2.24678858 0 2.24678858 0 0 Z " fill="#6F4B29" transform="translate(465,544)"/>
<path d="M0 0 C0.64453125 1.78515625 0.64453125 1.78515625 1 4 C0.07421875 5.74609375 0.07421875 5.74609375 -1.3125 7.4375 C-3.5348477 10.1820039 -4.71142793 12.71606447 -6 16 C-7.10793137 18.10373475 -8.25594105 20.18671857 -9.4375 22.25 C-10.03433594 23.30703125 -10.63117188 24.3640625 -11.24609375 25.453125 C-13 28 -13 28 -16 29 C-16.33 29.99 -16.66 30.98 -17 32 C-17.33 31.34 -17.66 30.68 -18 30 C-16.70703125 27.71484375 -16.70703125 27.71484375 -14.8125 24.9375 C-11.63835939 20.12550283 -9.12668732 15.3497414 -7 10 C-6.34 10 -5.68 10 -5 10 C-4.731875 9.0925 -4.46375 8.185 -4.1875 7.25 C-3.10423706 4.28528037 -2.01640543 2.3830246 0 0 Z " fill="#724C2C" transform="translate(381,688)"/>
<path d="M0 0 C0.99 0.33 1.98 0.66 3 1 C1.625 2.5 1.625 2.5 0 4 C-0.66 4 -1.32 4 -2 4 C-2 4.66 -2 5.32 -2 6 C-2.99 6.495 -2.99 6.495 -4 7 C-4.51206942 12.37672887 -3.13090095 14.70619298 0 19 C1.90526393 22.59068971 3.54860772 26.20405097 5 30 C1.19566361 27.29691888 -0.46129521 25.37939056 -2 21 C-2.66 20.67 -3.32 20.34 -4 20 C-4.69258229 18.00882592 -5.35747635 16.0078864 -6 14 C-6.66 13.01 -7.32 12.02 -8 11 C-7.85304966 7.4731918 -7.65479597 5.65479597 -5.125 3.125 C-3 2 -3 2 0 2 C0 1.34 0 0.68 0 0 Z " fill="#714E2D" transform="translate(400,498)"/>
<path d="M0 0 C0.66 0.33 1.32 0.66 2 1 C1.67 1.66 1.34 2.32 1 3 C0.34 3 -0.32 3 -1 3 C-0.39294514 7.12797305 0.93999331 10.37438822 3 14 C3.66 14.33 4.32 14.66 5 15 C5.8515625 17.06640625 5.8515625 17.06640625 6.625 19.5625 C7.01558594 20.80193359 7.01558594 20.80193359 7.4140625 22.06640625 C7.60742188 22.70449219 7.80078125 23.34257813 8 24 C8.66 24 9.32 24 10 24 C10.69965443 25.26418246 11.38434763 26.53665402 12.0625 27.8125 C12.44535156 28.52019531 12.82820313 29.22789062 13.22265625 29.95703125 C14 32 14 32 13 35 C9 28.25 9 28.25 9 26 C8.34 26 7.68 26 7 26 C3.23965209 21.19084757 0.67774568 15.45112514 -2 10 C-2.33 9.67 -2.66 9.34 -3 9 C-3.04080783 7.00041636 -3.04254356 4.99954746 -3 3 C-2.01 2.67 -1.02 2.34 0 2 C0 1.34 0 0.68 0 0 Z " fill="#CC7B3B" transform="translate(398,502)"/>
<path d="M0 0 C0.99 0.33 1.98 0.66 3 1 C4.1875 4.0625 4.1875 4.0625 5 7 C3.68 7.33 2.36 7.66 1 8 C0.67 10.31 0.34 12.62 0 15 C-2.33364352 12.07096942 -4.04960836 9.11431797 -5.6875 5.75 C-6.34298828 4.41195312 -6.34298828 4.41195312 -7.01171875 3.046875 C-7.50091797 2.03367187 -7.50091797 2.03367187 -8 1 C-6.68 1 -5.36 1 -4 1 C-3.34 2.32 -2.68 3.64 -2 5 C-1.34 5 -0.68 5 0 5 C0 3.35 0 1.7 0 0 Z " fill="#55554F" transform="translate(406,535)"/>
<path d="M0 0 C0.66 0 1.32 0 2 0 C2.66 1.32 3.32 2.64 4 4 C5.65 3.34 7.3 2.68 9 2 C8.85691406 2.93972656 8.85691406 2.93972656 8.7109375 3.8984375 C8.54464844 5.12433594 8.54464844 5.12433594 8.375 6.375 C8.25898438 7.18710937 8.14296875 7.99921875 8.0234375 8.8359375 C8.01570313 9.55007813 8.00796875 10.26421875 8 11 C8.66 11.66 9.32 12.32 10 13 C10.309375 14.175625 10.61875 15.35125 10.9375 16.5625 C11.288125 17.696875 11.63875 18.83125 12 20 C12.99 20.33 13.98 20.66 15 21 C16.42446157 23.6352539 17.16845087 25.19404974 16.546875 28.16796875 C16.36640625 28.77253906 16.1859375 29.37710938 16 30 C12.12693894 23.50397252 8.43634111 16.99926877 5.1328125 10.1953125 C4.09582207 8.18569656 2.9713358 6.35841965 1.6875 4.5 C0 2 0 2 0 0 Z " fill="#694D32" transform="translate(485,686)"/>
<path d="M0 0 C3.05587153 2.81928793 5.02014698 5.50681955 6.9375 9.1875 C8.3891518 11.97260294 9.81785729 14.71180553 11.49609375 17.3671875 C15.040887 23.01073936 15.62126191 27.38701217 15 34 C14.67 34 14.34 34 14 34 C13.67 30.37 13.34 26.74 13 23 C12.34 23 11.68 23 11 23 C8 17.25 8 17.25 8 15 C7.01 15 6.02 15 5 15 C4.731875 13.9275 4.46375 12.855 4.1875 11.75 C3.11059366 8.34924314 2.08378873 6.74681242 0 4 C0 2.68 0 1.36 0 0 Z " fill="#754D2A" transform="translate(434,576)"/>
<path d="M0 0 C1.32 0 2.64 0 4 0 C4.33 0.99 4.66 1.98 5 3 C4.54423584 3.42112061 4.08847168 3.84224121 3.61889648 4.27612305 C1.99958828 6.00043842 1.11030847 7.45876401 0.09765625 9.58203125 C-0.23556641 10.26716797 -0.56878906 10.95230469 -0.91210938 11.65820312 C-1.41967773 12.72458008 -1.41967773 12.72458008 -1.9375 13.8125 C-4.3319132 18.81816151 -6.89676578 23.38233339 -10 28 C-10.78215588 30.7282504 -10.78215588 30.7282504 -11 33 C-11.33 33 -11.66 33 -12 33 C-12.81578241 27.63914419 -11.77952924 25.26066435 -8.5625 20.875 C-7.92441406 20.06804688 -7.28632813 19.26109375 -6.62890625 18.4296875 C-4.91829974 15.87813534 -4.38160591 14.02059886 -4 11 C-3.34 11 -2.68 11 -2 11 C-1.664061 9.5422647 -1.33133376 8.08378894 -1 6.625 C-0.814375 5.81289063 -0.62875 5.00078125 -0.4375 4.1640625 C0.06605239 2.04125049 0.06605239 2.04125049 0 0 Z " fill="#6B4C30" transform="translate(331,688)"/>
<path d="M0 0 C0.9215538 0.00222061 1.8431076 0.00444122 2.79258728 0.00672913 C3.83359085 0.00680466 4.87459442 0.00688019 5.94714355 0.00695801 C7.07941879 0.01211929 8.21169403 0.01728058 9.37828064 0.02259827 C10.53106003 0.02401321 11.68383942 0.02542816 12.87155151 0.02688599 C16.57043503 0.03250446 20.26925903 0.0450601 23.96812439 0.05775452 C26.46877456 0.06276714 28.96942567 0.06733045 31.47007751 0.07142639 C37.61528027 0.0824799 43.76044808 0.099236 49.90562439 0.12025452 C49.90562439 0.45025452 49.90562439 0.78025452 49.90562439 1.12025452 C49.28810303 1.12390015 48.67058167 1.12754578 48.03434753 1.13130188 C41.61019686 1.17309482 35.18676278 1.24241781 28.76304626 1.32777405 C26.36533269 1.35600917 23.9675256 1.37721098 21.56968689 1.39125061 C18.12388642 1.41264424 14.67921344 1.45927832 11.23374939 1.51087952 C9.62418365 1.51272247 9.62418365 1.51272247 7.98210144 1.51460266 C6.48099823 1.5441806 6.48099823 1.5441806 4.9495697 1.57435608 C4.07020752 1.58323853 3.19084534 1.59212097 2.28483582 1.60127258 C-0.82168041 2.2789029 -2.06045084 3.74693702 -4.09437561 6.12025452 C-3.02706461 0.1738075 -3.02706461 0.1738075 0 0 Z " fill="#724927" transform="translate(368.09437561035156,633.8797454833984)"/>
<path d="M0 0 C1.31625194 2.63250388 0.74813658 3.80179056 0.0625 6.625 C-0.13214844 7.44226563 -0.32679688 8.25953125 -0.52734375 9.1015625 C-0.68332031 9.72804688 -0.83929688 10.35453125 -1 11 C-0.01 11 0.98 11 2 11 C2 11.66 2 12.32 2 13 C1.34 13 0.68 13 0 13 C-0.66 14.65 -1.32 16.3 -2 18 C-2.66 18 -3.32 18 -4 18 C-3.67 16.35 -3.34 14.7 -3 13 C-3.99 14.485 -3.99 14.485 -5 16 C-5.66 16 -6.32 16 -7 16 C-7 16.66 -7 17.32 -7 18 C-7.66 17.67 -8.32 17.34 -9 17 C-6.03 11.39 -3.06 5.78 0 0 Z " fill="#605A51" transform="translate(359,621)"/>
<path d="M0 0 C0.66 0 1.32 0 2 0 C3.25390625 1.42578125 3.25390625 1.42578125 4.5625 3.3125 C4.99691406 3.92738281 5.43132812 4.54226563 5.87890625 5.17578125 C7 7 7 7 8 10 C27.305 10.495 27.305 10.495 47 11 C47 11.33 47 11.66 47 12 C41.43195788 12.27296195 35.86784016 12.47195459 30.29467773 12.60424805 C28.40173504 12.65940429 26.50925771 12.73435819 24.61791992 12.82983398 C8.8512916 13.60551394 8.8512916 13.60551394 4.16064453 9.53759766 C0 3.05814594 0 3.05814594 0 0 Z " fill="#CA7E41" transform="translate(454,709)"/>
<path d="M0 0 C1.22763565 0.00212242 1.22763565 0.00212242 2.48007202 0.00428772 C5.09873075 0.00989335 7.71730454 0.02244677 10.3359375 0.03515625 C12.10937377 0.04017053 13.88281137 0.04473356 15.65625 0.04882812 C20.00784532 0.05986461 24.359377 0.077133 28.7109375 0.09765625 C28.7109375 0.42765625 28.7109375 0.75765625 28.7109375 1.09765625 C27.12224854 1.06454346 27.12224854 1.06454346 25.50146484 1.03076172 C21.55363312 0.96177599 17.60799066 0.95893593 13.65966797 0.97558594 C11.95447533 0.97364491 10.24920403 0.95400859 8.54443359 0.91601562 C-1.30332168 0.3184333 -1.30332168 0.3184333 -9.70605469 4.36425781 C-11.19103156 6.89819707 -12.23993054 9.36396908 -13.2890625 12.09765625 C-14.2790625 12.59265625 -14.2790625 12.59265625 -15.2890625 13.09765625 C-14.63113085 11.42752207 -13.96182966 9.76186975 -13.2890625 8.09765625 C-13.04800781 7.48535156 -12.80695313 6.87304688 -12.55859375 6.2421875 C-9.73225829 -0.71604956 -6.95806313 -0.04494646 0 0 Z " fill="#D27C3C" transform="translate(400.2890625,666.90234375)"/>
<path d="M0 0 C3.875 3.75 3.875 3.75 5 6 C8.47517129 7.15839043 11.6727002 7.22801218 15.29296875 7.31640625 C15.99899734 7.33718735 16.70502594 7.35796844 17.43244934 7.37937927 C19.68403551 7.44467491 21.93573662 7.50366647 24.1875 7.5625 C25.7155066 7.60570425 27.24350164 7.64931916 28.77148438 7.69335938 C32.51420562 7.80033574 36.2570423 7.90165922 40 8 C40 8.33 40 8.66 40 9 C27.79 9 15.58 9 3 9 C0 3 0 3 0 0 Z " fill="#634C34" transform="translate(456,714)"/>
<path d="M0 0 C2 2 2 2 2.265625 3.875 C2.26046875 4.57625 2.2553125 5.2775 2.25 6 C2.25515625 6.70125 2.2603125 7.4025 2.265625 8.125 C2 10 2 10 0 12 C-0.36831081 13.93257855 -0.36831081 13.93257855 -0.4140625 16.1328125 C-0.45273437 16.93847656 -0.49140625 17.74414062 -0.53125 18.57421875 C-0.5621875 19.41597656 -0.593125 20.25773438 -0.625 21.125 C-0.66367187 21.97449219 -0.70234375 22.82398438 -0.7421875 23.69921875 C-0.83656494 25.79911684 -0.91937586 27.89952891 -1 30 C-1.33 30 -1.66 30 -2 30 C-2.05793591 25.56255461 -2.09357467 21.12520611 -2.125 16.6875 C-2.14175781 15.42486328 -2.15851562 14.16222656 -2.17578125 12.86132812 C-2.18222656 11.65283203 -2.18867187 10.44433594 -2.1953125 9.19921875 C-2.20578613 8.08377686 -2.21625977 6.96833496 -2.22705078 5.8190918 C-2 3 -2 3 0 0 Z " fill="#6A6962" transform="translate(597,590)"/>
<path d="M0 0 C3.79419856 3.34331846 5.84927225 7.01151237 8.125 11.4375 C8.47175781 12.09298828 8.81851562 12.74847656 9.17578125 13.42382812 C10.98815256 16.88538788 12.62965791 20.33398172 14 24 C9.78577758 21.11658466 8.23924145 18.95696581 7 14 C6.34 14 5.68 14 5 14 C5 12.35 5 10.7 5 9 C4.01 9 3.02 9 2 9 C0.50178941 5.62902617 0 3.79557881 0 0 Z " fill="#704D2D" transform="translate(442,690)"/>
<path d="M0 0 C1.32 0.33 2.64 0.66 4 1 C4.268125 2.134375 4.53625 3.26875 4.8125 4.4375 C5.4003125 6.2009375 5.4003125 6.2009375 6 8 C6.99 8.33 7.98 8.66 9 9 C10.7529462 12.57331341 12.21769326 16.08846628 13 20 C13.66 20 14.32 20 15 20 C15.33 21.98 15.66 23.96 16 26 C15.34 24.68 14.68 23.36 14 22 C13.34 22 12.68 22 12 22 C10.37359266 19.08411598 8.74912272 16.16715706 7.125 13.25 C6.66480469 12.425 6.20460938 11.6 5.73046875 10.75 C5.28574219 9.95078125 4.84101563 9.1515625 4.3828125 8.328125 C3.97434082 7.5949707 3.56586914 6.86181641 3.14501953 6.10644531 C2.04989264 4.09178544 1.01238002 2.05728631 0 0 Z " fill="#6D4D2E" transform="translate(469,660)"/>
<path d="M0 0 C3.32993034 3.82941989 5.05324525 8.37522222 7 13 C5.576875 12.4740625 5.576875 12.4740625 4.125 11.9375 C1.12939828 10.64973223 1.12939828 10.64973223 -1 12 C-1 2 -1 2 0 0 Z " fill="#58534C" transform="translate(563,522)"/>
<path d="M0 0 C0.66 0.33 1.32 0.66 2 1 C1.34 2.98 0.68 4.96 0 7 C-0.99 7 -1.98 7 -3 7 C-3 7.66 -3 8.32 -3 9 C-4.65 9.66 -6.3 10.32 -8 11 C-8 11.66 -8 12.32 -8 13 C-9.98 13.33 -11.96 13.66 -14 14 C-9.33333333 9.33333333 -4.66666667 4.66666667 0 0 Z " fill="#5D5B52" transform="translate(270,446)"/>
<path d="M0 0 C2.55902083 4.94047694 3.41067779 8.51403082 2 14 C1.34 14 0.68 14 0 14 C-0.66 17.3 -1.32 20.6 -2 24 C-2.33 24 -2.66 24 -3 24 C-2.45423097 15.89963866 -1.45852964 7.98651182 0 0 Z " fill="#6B6B63" transform="translate(196,568)"/>
<path d="M0 0 C1.25 2.0625 1.25 2.0625 2 4 C-2.05361489 4.77211712 -5.87123589 5.28150664 -10 5 C-10.66 4.34 -11.32 3.68 -12 3 C-10.75823305 2.29773859 -9.50614401 1.61370891 -8.25 0.9375 C-7.20585937 0.36322266 -7.20585937 0.36322266 -6.140625 -0.22265625 C-3.60582931 -1.14313863 -2.47058512 -1.02231108 0 0 Z " fill="#59554A" transform="translate(324,417)"/>
<path d="M0 0 C5.32697239 1.45281065 8.36402802 5.08111378 12 9 C7.75279253 10.41573582 5.5689976 8.76329613 1.6875 6.875 C0.8521875 6.441875 0.8521875 6.441875 0 6 C0 4 0 2 0 0 Z " fill="#545146" transform="translate(529,480)"/>
<path d="M0 0 C2.06681445 2.61071299 3.93109607 5.33837839 5.75 8.125 C6.19859375 8.80820312 6.6471875 9.49140625 7.109375 10.1953125 C7.40328125 10.79085937 7.6971875 11.38640625 8 12 C7.67 12.66 7.34 13.32 7 14 C6.01 13.67 5.02 13.34 4 13 C1.80961577 14.37168238 1.80961577 14.37168238 0 16 C0.08378906 15.28972656 0.16757812 14.57945312 0.25390625 13.84765625 C0.35574219 12.92855469 0.45757812 12.00945313 0.5625 11.0625 C0.66691406 10.14597656 0.77132813 9.22945312 0.87890625 8.28515625 C0.91886719 7.53105469 0.95882813 6.77695312 1 6 C0.67 5.67 0.34 5.34 0 5 C-0.04063832 3.33382885 -0.042721 1.66611905 0 0 Z " fill="#D77937" transform="translate(482,682)"/>
<path d="M0 0 C2.8551592 4.2827388 3.11672494 7.14458058 3.0625 12.1875 C3.05347656 13.27417969 3.04445313 14.36085938 3.03515625 15.48046875 C3.02355469 16.31191406 3.01195312 17.14335938 3 18 C2.01 18.33 1.02 18.66 0 19 C0 12.73 0 6.46 0 0 Z " fill="#ED761A" transform="translate(486,593)"/>
<path d="M0 0 C2.0152799 2.68703986 3.93250486 5.31322811 5.75 8.125 C6.19859375 8.80820312 6.6471875 9.49140625 7.109375 10.1953125 C7.40328125 10.79085937 7.6971875 11.38640625 8 12 C7.67 12.66 7.34 13.32 7 14 C6.38125 13.67 5.7625 13.34 5.125 13 C3.08981656 11.85806765 3.08981656 11.85806765 1 12 C1 11.34 1 10.68 1 10 C0.34 10 -0.32 10 -1 10 C-0.67 6.7 -0.34 3.4 0 0 Z " fill="#D57832" transform="translate(442,506)"/>
<path d="M0 0 C3.42945852 3.03459549 5.02007182 5.81765917 6.6875 10.0625 C7.10386719 11.10535156 7.52023437 12.14820313 7.94921875 13.22265625 C9.42827771 17.13199053 10.11661027 20.02100929 10.0625 24.1875 C10.05347656 25.08855469 10.04445313 25.98960937 10.03515625 26.91796875 C10.02355469 27.60503906 10.01195312 28.29210937 10 29 C9.67 29 9.34 29 9 29 C8.90203125 28.23816406 8.8040625 27.47632813 8.703125 26.69140625 C7.63573506 19.32089471 6.47017758 11.47017758 1 6 C0.60235737 4.01178687 0.26224651 2.01055661 0 0 Z " fill="#C4773E" transform="translate(481,576)"/>
<path d="M0 0 C5.94 0 11.88 0 18 0 C18 0.33 18 0.66 18 1 C16.02 1 14.04 1 12 1 C12 1.66 12 2.32 12 3 C8.04 3 4.08 3 0 3 C0 2.01 0 1.02 0 0 Z " fill="#585850" transform="translate(411,803)"/>
<path d="M0 0 C1.32 0 2.64 0 4 0 C4.25394531 0.69867187 4.50789063 1.39734375 4.76953125 2.1171875 C6.6114702 6.43258731 9.16207787 10.28053397 11.63671875 14.2578125 C13 17 13 17 12 20 C3.55353075 6.3667426 3.55353075 6.3667426 0 0 Z " fill="#C97B3F" transform="translate(429,668)"/>
<path d="M0 0 C0 3.31069001 -0.58516985 4.40636187 -2.1875 7.23046875 C-2.63867188 8.03291016 -3.08984375 8.83535156 -3.5546875 9.66210938 C-4.03164063 10.49548828 -4.50859375 11.32886719 -5 12.1875 C-5.47695313 13.03248047 -5.95390625 13.87746094 -6.4453125 14.74804688 C-7.6245619 16.83531832 -8.80962497 18.91905982 -10 21 C-10.33 21 -10.66 21 -11 21 C-11 19.35 -11 17.7 -11 16 C-10.34 16 -9.68 16 -9 16 C-8.731875 14.906875 -8.46375 13.81375 -8.1875 12.6875 C-7.04763011 9.14790402 -6.5600561 8.3467181 -4 6 C-3.32650839 4.33607955 -2.6590841 2.66967972 -2 1 C-1.34 0.67 -0.68 0.34 0 0 Z " fill="#6C4C29" transform="translate(362,643)"/>
<path d="M0 0 C3.88701415 1.29567138 4.44755274 2.8637199 6.5625 6.3125 C7.16191406 7.27800781 7.76132812 8.24351562 8.37890625 9.23828125 C8.91386719 10.14964844 9.44882812 11.06101562 10 12 C10.42152344 12.71542969 10.84304688 13.43085937 11.27734375 14.16796875 C12 16 12 16 11 19 C6.95230446 12.81475738 3.15538024 6.6894061 0 0 Z " fill="#6D4B29" transform="translate(452,523)"/>
<path d="M0 0 C3.48331435 3.01887244 4.79157144 5.56909529 6 10 C5.34 10 4.68 10 4 10 C4 15.28 4 20.56 4 26 C3.67 26 3.34 26 3 26 C2.95101563 24.96101563 2.90203125 23.92203125 2.8515625 22.8515625 C2.44790554 15.08046683 1.87783799 7.58427772 0 0 Z " fill="#B4733E" transform="translate(411,454)"/>
<path d="M0 0 C1.875 0.1875 1.875 0.1875 4 1 C5.25 3.5625 5.25 3.5625 6 6 C3 8 3 8 1 8 C0.01 8.495 0.01 8.495 -1 9 C-2.0326802 6.21176345 -2.04509293 5.1322726 -1.0625 2.25 C-0.711875 1.5075 -0.36125 0.765 0 0 Z " fill="#59554B" transform="translate(233,542)"/>
<path d="M0 0 C1.98 0.66 3.96 1.32 6 2 C6.33 4.31 6.66 6.62 7 9 C7.99 9.33 8.98 9.66 10 10 C9.67 11.98 9.34 13.96 9 16 C6 12.25 6 12.25 6 10 C5.34 10 4.68 10 4 10 C2.74335022 7.09399739 2 5.20395416 2 2 C1.34 2 0.68 2 0 2 C0 1.34 0 0.68 0 0 Z " fill="#6A4E31" transform="translate(437,496)"/>
<path d="M0 0 C0 3.25873805 -0.5812142 4.16242839 -2 7 C-2.69730806 9.3243602 -3.36912152 11.65673706 -4 14 C-5.32 14 -6.64 14 -8 14 C-4.62 3.08 -4.62 3.08 0 0 Z " fill="#D47B35" transform="translate(351,666)"/>
<path d="M0 0 C-12.30068337 7.85193622 -12.30068337 7.85193622 -20 8 C-17.93526646 5.93526646 -16.75433854 5.39493233 -14.0625 4.4375 C-13.37285156 4.18871094 -12.68320312 3.93992187 -11.97265625 3.68359375 C-10.31914641 3.11059529 -8.66017463 2.55339154 -7 2 C-7 1.34 -7 0.68 -7 0 C-3.98968256 -0.93423645 -3.13349732 -1.04449911 0 0 Z " fill="#6A4C31" transform="translate(438,625)"/>
<path d="M0 0 C-0.33 1.32 -0.66 2.64 -1 4 C-1.99 4 -2.98 4 -4 4 C-4 5.65 -4 7.3 -4 9 C-6.50037734 6.82575883 -7.43628586 5.26954202 -8 2 C-4.91190305 0.23537317 -3.76687864 0 0 0 Z " fill="#5D4D38" transform="translate(428,464)"/>
<path d="M0 0 C0 0.66 0 1.32 0 2 C-0.99 2.495 -0.99 2.495 -2 3 C-2 7.29 -2 11.58 -2 16 C-2.33 16 -2.66 16 -3 16 C-4.32 11.05 -5.64 6.1 -7 1 C-3 0 -3 0 0 0 Z " fill="#604B33" transform="translate(494,584)"/>
<path d="M0 0 C0.8971875 0.309375 0.8971875 0.309375 1.8125 0.625 C-0.99554268 3.58904505 -3.37065774 6.06999019 -7.1875 7.625 C-7.8475 6.965 -8.5075 6.305 -9.1875 5.625 C-8.5275 5.625 -7.8675 5.625 -7.1875 5.625 C-6.919375 5.00625 -6.65125 4.3875 -6.375 3.75 C-4.77615771 0.8889138 -3.38774371 -0.58075607 0 0 Z " fill="#58544E" transform="translate(514.1875,754.375)"/>
<path d="M0 0 C0.64453125 1.765625 0.64453125 1.765625 1 4 C0.07421875 5.921875 0.07421875 5.921875 -1.3125 7.75 C-1.76238281 8.36359375 -2.21226562 8.9771875 -2.67578125 9.609375 C-3.11277344 10.06828125 -3.54976563 10.5271875 -4 11 C-4.66 11 -5.32 11 -6 11 C-6.12375 11.639375 -6.2475 12.27875 -6.375 12.9375 C-6.58125 13.618125 -6.7875 14.29875 -7 15 C-7.99 15.495 -7.99 15.495 -9 16 C-8.34 14.02 -7.68 12.04 -7 10 C-6.34 10 -5.68 10 -5 10 C-4.731875 9.0925 -4.46375 8.185 -4.1875 7.25 C-3.10423706 4.28528037 -2.01640543 2.3830246 0 0 Z " fill="#7E542E" transform="translate(381,688)"/>
<path d="M0 0 C0.92345561 2.49333015 1.0271534 3.87931824 0.4375 6.5 C-1.47282381 9.82230227 -3.67359206 11.16708134 -7 13 C-7.99 13 -8.98 13 -10 13 C-9.52949219 12.56429688 -9.05898438 12.12859375 -8.57421875 11.6796875 C-4.7848786 8.05510127 -2.04329447 4.92794549 0 0 Z " fill="#C0773B" transform="translate(412,486)"/>
<path d="M0 0 C1.8125 0.0625 1.8125 0.0625 4 1 C5.81278756 4.4960903 7 7.03981755 7 11 C4 10 4 10 2.83203125 8.22265625 C2.49558594 7.50980469 2.15914063 6.79695312 1.8125 6.0625 C1.46832031 5.35222656 1.12414062 4.64195312 0.76953125 3.91015625 C0 2 0 2 0 0 Z " fill="#4D5150" transform="translate(498,704)"/>
<path d="M0 0 C0.66 0 1.32 0 2 0 C0.31326082 4.49797113 -1.81673892 8.72886302 -4 13 C-4.33 13 -4.66 13 -5 13 C-5 9.7 -5 6.4 -5 3 C-4.01 3 -3.02 3 -2 3 C-1.34 2.01 -0.68 1.02 0 0 Z " fill="#59554E" transform="translate(311,632)"/>
<path d="M0 0 C1 2 1 2 0.375 4.0625 C-1 6 -1 6 -3.625 6.75 C-4.800625 6.87375 -4.800625 6.87375 -6 7 C-6 7.66 -6 8.32 -6 9 C-6.66 9 -7.32 9 -8 9 C-6.64531705 4.12314139 -4.28324091 2.51407619 0 0 Z " fill="#DA7C32" transform="translate(481,632)"/>
<path d="M0 0 C3.48763975 1.16254658 4.06608373 1.97300062 6 5 C6.68753301 6.65816784 7.35561283 8.32459336 8 10 C8.99 11.485 8.99 11.485 10 13 C9.67 13.99 9.34 14.98 9 16 C9 15.34 9 14.68 9 14 C8.34 14 7.68 14 7 14 C6.01780373 12.23084525 5.03934641 10.45961431 4.0625 8.6875 C3.51722656 7.70136719 2.97195313 6.71523438 2.41015625 5.69921875 C1 3 1 3 0 0 Z " fill="#C87A3B" transform="translate(419,550)"/>
<path d="M0 0 C2 2 2 2 2.046875 4.12890625 C1.94890625 4.93199219 1.8509375 5.73507812 1.75 6.5625 C1.61851562 7.77099609 1.61851562 7.77099609 1.484375 9.00390625 C1.32453125 9.66261719 1.1646875 10.32132812 1 11 C0.01 11.495 0.01 11.495 -1 12 C-4 8.25 -4 8.25 -4 6 C-3.34 5.67 -2.68 5.34 -2 5 C-1.67 4.01 -1.34 3.02 -1 2 C-0.67 1.34 -0.34 0.68 0 0 Z " fill="#58574E" transform="translate(566,496)"/>
<path d="M0 0 C0.875 1.875 0.875 1.875 1 4 C-0.4375 5.75 -0.4375 5.75 -2 7 C-4.50037734 4.82575883 -5.43628586 3.26954202 -6 0 C-3 -1 -3 -1 0 0 Z " fill="#5A574E" transform="translate(279,737)"/>
<path d="M0 0 C0 0.99 0 1.98 0 3 C-0.639375 3.226875 -1.27875 3.45375 -1.9375 3.6875 C-4.19798069 4.83082409 -4.19798069 4.83082409 -4.8125 7.25 C-5.02254208 10.33061724 -4.63096877 12.98537143 -4 16 C-6.6865503 13.3134497 -7.96360111 11.41955687 -8.0625 7.5625 C-6.46895342 3.71924059 -3.46469552 2.12585756 0 0 Z " fill="#764B25" transform="translate(473,644)"/>
<path d="M0 0 C0.66 0 1.32 0 2 0 C2.33 3.63 2.66 7.26 3 11 C2.67 10.34 2.34 9.68 2 9 C1.01 9 0.02 9 -1 9 C-1.80967438 6.08517222 -2.21845993 4.53886783 -1.0625 1.6875 C-0.711875 1.130625 -0.36125 0.57375 0 0 Z " fill="#5D5B54" transform="translate(213,645)"/>
<path d="M0 0 C1.65 0 3.3 0 5 0 C5 3 5 3 3.6875 4.38671875 C2.125 5.59114583 0.5625 6.79557292 -1 8 C-1.33 6.35 -1.66 4.7 -2 3 C-1.01 3 -0.02 3 1 3 C0.67 2.01 0.34 1.02 0 0 Z " fill="#5A5750" transform="translate(270,465)"/>
<path d="M0 0 C0.99 0 1.98 0 3 0 C4.35439668 2.70879335 4.06501451 5.00933268 4 8 C2.68 8 1.36 8 0 8 C0 5.36 0 2.72 0 0 Z " fill="#4A514F" transform="translate(469,650)"/>
<path d="M0 0 C3 4 3 4 3 6 C3.66 6 4.32 6 5 6 C5.33 7.65 5.66 9.3 6 11 C4.02 11 2.04 11 0 11 C0 7.37 0 3.74 0 0 Z " fill="#D47737" transform="translate(434,492)"/>
<path d="M0 0 C0.66 0.33 1.32 0.66 2 1 C1.65120368 4.25543229 0.97866739 5.01873107 -1.5625 7.25 C-2.7690625 8.11625 -2.7690625 8.11625 -4 9 C-4.66 8.67 -5.32 8.34 -6 8 C-6 5 -6 5 -4.6875 3.61328125 C-3.125 2.40885417 -1.5625 1.20442708 0 0 Z " fill="#5D5B50" transform="translate(289,467)"/>
<path d="M0 0 C2.6875 0.875 2.6875 0.875 5 2 C3.75 3.5625 3.75 3.5625 2 5 C0.125 4.625 0.125 4.625 -2 4 C-4.68149993 4.38567131 -4.68149993 4.38567131 -7 5 C-4.702779 3.25728062 -2.40133271 1.60088848 0 0 Z " fill="#5C584F" transform="translate(497,778)"/>
<path d="M0 0 C0.33 0 0.66 0 1 0 C1.39141851 3.42491198 1.13357065 4.79010327 -0.75 7.75 C-3.06501562 10.06501562 -3.92891893 10.40642971 -7 11 C-5.85845641 9.16399255 -4.71165684 7.33125195 -3.5625 5.5 C-2.92441406 4.4790625 -2.28632812 3.458125 -1.62890625 2.40625 C-0.82259766 1.21515625 -0.82259766 1.21515625 0 0 Z " fill="#5F5D55" transform="translate(565,714)"/>
<path d="M0 0 C0.33 0.99 0.66 1.98 1 3 C0.67 3.66 0.34 4.32 0 5 C-0.66 5 -1.32 5 -2 5 C-2.4021875 6.1446875 -2.4021875 6.1446875 -2.8125 7.3125 C-3.94424112 9.87380884 -4.91223401 11.19692938 -7 13 C-7 11.68 -7 10.36 -7 9 C-6.34 9 -5.68 9 -5 9 C-4.731875 8.071875 -4.46375 7.14375 -4.1875 6.1875 C-3.08851629 3.23759634 -2.37581439 1.94384814 0 0 Z " fill="#704D2D" transform="translate(343,675)"/>
<path d="M0 0 C0.33 0 0.66 0 1 0 C1 1.98 1 3.96 1 6 C0.01 6.33 -0.98 6.66 -2 7 C-2 7.66 -2 8.32 -2 9 C-3.29233607 10.37310707 -4.62437146 11.71034824 -6 13 C-6.66 12.67 -7.32 12.34 -8 12 C-7.50628906 11.30132813 -7.01257813 10.60265625 -6.50390625 9.8828125 C-5.86324219 8.97273437 -5.22257812 8.06265625 -4.5625 7.125 C-3.92441406 6.22007812 -3.28632813 5.31515625 -2.62890625 4.3828125 C-1.00481862 2.12261419 -1.00481862 2.12261419 0 0 Z " fill="#7A5330" transform="translate(488,624)"/>
<path d="M0 0 C0.66 0.33 1.32 0.66 2 1 C-0.16069021 4.98021881 -2.62650361 7.97250324 -6 11 C-6.66 11 -7.32 11 -8 11 C-7.67 9.35 -7.34 7.7 -7 6 C-6.01 5.67 -5.02 5.34 -4 5 C-3.34 4.01 -2.68 3.02 -2 2 C-1.34 2 -0.68 2 0 2 C0 1.34 0 0.68 0 0 Z " fill="#724E2D" transform="translate(446,613)"/>
<path d="M0 0 C1.25 1.5625 1.25 1.5625 2 4 C0.93237266 6.57001015 -0.46544943 8.6530403 -2 11 C-3.25 9.4375 -3.25 9.4375 -4 7 C-2.93237266 4.42998985 -1.53455057 2.3469597 0 0 Z " fill="#5D5B53" transform="translate(364,612)"/>
<path d="M0 0 C3.02419525 0.58803797 6.01758453 1.22678118 9 2 C6.57869669 4.42130331 5.19888623 4.52840504 1.875 5.125 C0.96492188 5.29257812 0.05484375 5.46015625 -0.8828125 5.6328125 C-1.58148438 5.75398437 -2.28015625 5.87515625 -3 6 C-2.67 5.34 -2.34 4.68 -2 4 C-1.34 4 -0.68 4 0 4 C0 2.68 0 1.36 0 0 Z " fill="#615D53" transform="translate(457,810)"/>
<path d="M0 0 C0.66 0.33 1.32 0.66 2 1 C1.61402985 3.79828356 1.19863427 4.8205884 -0.9375 6.75 C-3 8 -3 8 -5 8 C-5 6.68 -5 5.36 -5 4 C-4.01 4 -3.02 4 -2 4 C-2 3.34 -2 2.68 -2 2 C-1.34 2 -0.68 2 0 2 C0 1.34 0 0.68 0 0 Z " fill="#59564E" transform="translate(536,770)"/>
<path d="M0 0 C0.33 0 0.66 0 1 0 C1 1.65 1 3.3 1 5 C1.99 5.33 2.98 5.66 4 6 C1.34771188 7.07525194 -1.28368454 8.09456151 -4 9 C-4.33 7.68 -4.66 6.36 -5 5 C-3.68 4.67 -2.36 4.34 -1 4 C-0.67 2.68 -0.34 1.36 0 0 Z " fill="#5A5551" transform="translate(423,567)"/>
<path d="M0 0 C1.65 0.33 3.3 0.66 5 1 C2.25 5.875 2.25 5.875 0 7 C-0.99 6.01 -1.98 5.02 -3 4 C-2.34 3.34 -1.68 2.68 -1 2 C-0.67 1.34 -0.34 0.68 0 0 Z " fill="#5B584D" transform="translate(515,448)"/>
<path d="M0 0 C1.32 0.66 2.64 1.32 4 2 C3.01 2.33 2.02 2.66 1 3 C2.32 3.99 3.64 4.98 5 6 C2 7 2 7 -1.1875 5.5625 C-2.115625 5.046875 -3.04375 4.53125 -4 4 C-2.68 3.34 -1.36 2.68 0 2 C0 1.34 0 0.68 0 0 Z " fill="#5A5550" transform="translate(323,770)"/>
<path d="M0 0 C2 2 2 2 2.08203125 4.93359375 C1.99308594 6.08988281 1.90414063 7.24617188 1.8125 8.4375 C1.73644531 9.59121094 1.66039062 10.74492187 1.58203125 11.93359375 C1 15 1 15 -2 18 C-1.34 12.06 -0.68 6.12 0 0 Z " fill="#D47B38" transform="translate(415,468)"/>
<path d="M0 0 C3 1 3 1 4.6875 3.3125 C6 6 6 6 6 10 C5.34 10 4.68 10 4 10 C3.32845067 8.71086513 2.66291141 7.41859796 2 6.125 C1.62875 5.40570313 1.2575 4.68640625 0.875 3.9453125 C0 2 0 2 0 0 Z " fill="#694C2D" transform="translate(414,456)"/>
<path d="M0 0 C0.99 0.33 1.98 0.66 3 1 C3 1.99 3 2.98 3 4 C-3.625 5 -3.625 5 -7 5 C-5.90554162 4.13342884 -4.79902219 3.28207276 -3.6875 2.4375 C-3.07261719 1.96183594 -2.45773437 1.48617187 -1.82421875 0.99609375 C-1.22222656 0.66738281 -0.62023437 0.33867188 0 0 Z " fill="#5C5B51" transform="translate(521,763)"/>
<path d="M0 0 C1.32 0.33 2.64 0.66 4 1 C3.34 3.64 2.68 6.28 2 9 C0.68 7.68 -0.64 6.36 -2 5 C-1.34 3.35 -0.68 1.7 0 0 Z " fill="#F5F4F1" transform="translate(589,710)"/>
<path d="M0 0 C1.8125 0.0625 1.8125 0.0625 4 1 C6.02800831 4.90579378 7.34108329 8.65114973 8 13 C0 3.28571429 0 3.28571429 0 0 Z " fill="#784D28" transform="translate(469,660)"/>
<path d="M0 0 C0.66 0.33 1.32 0.66 2 1 C-1.3 3.64 -4.6 6.28 -8 9 C-8.33 8.01 -8.66 7.02 -9 6 C-5.25 3 -5.25 3 -3 3 C-3 2.34 -3 1.68 -3 1 C-2.01 0.67 -1.02 0.34 0 0 Z " fill="#BF763D" transform="translate(478,638)"/>
<path d="M0 0 C0.66 0.33 1.32 0.66 2 1 C0.68 3.64 -0.64 6.28 -2 9 C-2.66 8.67 -3.32 8.34 -4 8 C-3.6875 5.125 -3.6875 5.125 -3 2 C-2.01 1.34 -1.02 0.68 0 0 Z " fill="#5A5851" transform="translate(335,588)"/>
<path d="M0 0 C1.32 0.33 2.64 0.66 4 1 C2.68 3.31 1.36 5.62 0 8 C-0.66 7.67 -1.32 7.34 -2 7 C-1.125 2.25 -1.125 2.25 0 0 Z " fill="#58584F" transform="translate(365,529)"/>
<path d="M0 0 C3.65190574 2.43460383 3.91974717 3.84518143 5 8 C5 9.32 5 10.64 5 12 C4.34 12 3.68 12 3 12 C2.67 10.02 2.34 8.04 2 6 C1.34 6 0.68 6 0 6 C0 4.02 0 2.04 0 0 Z " fill="#685034" transform="translate(408,452)"/>
<path d="M0 0 C0.99 0 1.98 0 3 0 C3.66 0.66 4.32 1.32 5 2 C4.01 3.98 3.02 5.96 2 8 C1.34 8 0.68 8 0 8 C-1.125 2.25 -1.125 2.25 0 0 Z " fill="#57544D" transform="translate(562,691)"/>
<path d="M0 0 C3.14737182 0.69941596 6.02588876 1.76078698 9 3 C8.67 3.99 8.34 4.98 8 6 C5.36 4.68 2.72 3.36 0 2 C0 1.34 0 0.68 0 0 Z " fill="#605D54" transform="translate(301,794)"/>
<path d="M0 0 C0.33 0.66 0.66 1.32 1 2 C1.66 2 2.32 2 3 2 C3.53012738 3.28788008 4.0488329 4.58046678 4.5625 5.875 C4.99755859 6.95394531 4.99755859 6.95394531 5.44140625 8.0546875 C6 10 6 10 5 12 C4.15885829 10.56705502 3.32734313 9.12845595 2.5 7.6875 C1.80390625 6.48673828 1.80390625 6.48673828 1.09375 5.26171875 C0 3 0 3 0 0 Z " fill="#C7793E" transform="translate(448,697)"/>
<path d="M0 0 C0 1.98 0 3.96 0 6 C-0.99 6.495 -0.99 6.495 -2 7 C-2.66 6.67 -3.32 6.34 -4 6 C-4 4.35 -4 2.7 -4 1 C-1 0 -1 0 0 0 Z " fill="#4F4E51" transform="translate(393,678)"/>
<path d="M0 0 C0.66 1.32 1.32 2.64 2 4 C1.01 4.495 1.01 4.495 0 5 C-0.72159424 6.64363134 -1.39351421 8.31050386 -2 10 C-2.66 10 -3.32 10 -4 10 C-2.99806563 6.20696275 -2.18975773 3.28463659 0 0 Z " fill="#64635A" transform="translate(346,645)"/>
<path d="M0 0 C0.99 0.66 1.98 1.32 3 2 C2.67 3.65 2.34 5.3 2 7 C1.34 7 0.68 7 0 7 C0 6.34 0 5.68 0 5 C-0.66 5 -1.32 5 -2 5 C-1.34 3.35 -0.68 1.7 0 0 Z " fill="#59554A" transform="translate(300,648)"/>
<path d="M0 0 C1 2 1 2 0.1875 4.5 C-1 7 -1 7 -3 9 C-3.99 8.67 -4.98 8.34 -6 8 C-6 6 -6 6 -3.5625 3.4375 C-2.716875 2.633125 -1.87125 1.82875 -1 1 C-0.67 0.67 -0.34 0.34 0 0 Z " fill="#636158" transform="translate(421,598)"/>
<path d="M0 0 C2.31 0 4.62 0 7 0 C5.35 1.65 3.7 3.3 2 5 C1.01 4.01 0.02 3.02 -1 2 C-0.67 1.34 -0.34 0.68 0 0 Z " fill="#5E5A54" transform="translate(257,478)"/>
<path d="M0 0 C0.66 0 1.32 0 2 0 C2.33 1.65 2.66 3.3 3 5 C2.01 5.495 2.01 5.495 1 6 C0.34 6.99 -0.32 7.98 -1 9 C-1.625 6.1875 -1.625 6.1875 -2 3 C-1.34 2.01 -0.68 1.02 0 0 Z " fill="#584B37" transform="translate(410,448)"/>
<path d="M0 0 C-0.66 1.65 -1.32 3.3 -2 5 C-4.31 4.67 -6.62 4.34 -9 4 C-3 0 -3 0 0 0 Z " fill="#ECEBEA" transform="translate(481,777)"/>
<path d="M0 0 C0.33 0.66 0.66 1.32 1 2 C-0.54442235 5.63393495 -1.48567857 6.78822059 -5.1875 8.3125 C-6.5796875 8.6528125 -6.5796875 8.6528125 -8 9 C-7.04270084 7.87411986 -6.08412105 6.7493285 -5.125 5.625 C-4.59132813 4.99851562 -4.05765625 4.37203125 -3.5078125 3.7265625 C-2.38567993 2.44163349 -1.20628025 1.20628025 0 0 Z " fill="#6B6861" transform="translate(538,747)"/>
<path d="M0 0 C-0.33 1.98 -0.66 3.96 -1 6 C-1.99 5.67 -2.98 5.34 -4 5 C-4 5.66 -4 6.32 -4 7 C-4.66 7 -5.32 7 -6 7 C-5.37162381 3.35541809 -4.14650034 0 0 0 Z " fill="#624E30" transform="translate(388,681)"/>
<path d="M0 0 C4.05388445 2.70258963 4.50347441 5.51042324 6 10 C5.34 10 4.68 10 4 10 C4 9.34 4 8.68 4 8 C3.34 8 2.68 8 2 8 C0.23537317 4.91190305 0 3.76687864 0 0 Z " fill="#774D2A" transform="translate(416,546)"/>
<path d="M0 0 C2.74277578 3.19990508 4.6302836 6.00499382 6 10 C5.01 9.67 4.02 9.34 3 9 C3 8.01 3 7.02 3 6 C2.34 6 1.68 6 1 6 C0.67 4.02 0.34 2.04 0 0 Z " fill="#744D28" transform="translate(409,534)"/>
<path d="M0 0 C0.99 0.33 1.98 0.66 3 1 C2.34 3.31 1.68 5.62 1 8 C-0.32 7.34 -1.64 6.68 -3 6 C-1.125 1.125 -1.125 1.125 0 0 Z " fill="#5C5850" transform="translate(249,512)"/>
<path d="M0 0 C1.32 0.33 2.64 0.66 4 1 C4 3.31 4 5.62 4 8 C1 6 1 6 0.3125 2.875 C0.209375 1.92625 0.10625 0.9775 0 0 Z " fill="#495447" transform="translate(442,499)"/>
<path d="M0 0 C2.31 1.98 4.62 3.96 7 6 C6.01 6.33 5.02 6.66 4 7 C2.35 5.35 0.7 3.7 -1 2 C-0.67 1.34 -0.34 0.68 0 0 Z " fill="#5D5B53" transform="translate(534,483)"/>
<path d="M0 0 C0.66 1.32 1.32 2.64 2 4 C0.02 5.32 -1.96 6.64 -4 8 C-4.66 7.67 -5.32 7.34 -6 7 C-4.02 4.69 -2.04 2.38 0 0 Z " fill="#5F5D56" transform="translate(249,466)"/>
<path d="M0 0 C0.99 0.33 1.98 0.66 3 1 C2.34 2.98 1.68 4.96 1 7 C0.34 7 -0.32 7 -1 7 C-1.33 7.66 -1.66 8.32 -2 9 C-2.33 8.34 -2.66 7.68 -3 7 C-2.06421005 4.64018187 -1.06652192 2.30368736 0 0 Z " fill="#5A5951" transform="translate(371,598)"/>
<path d="M0 0 C1.98 1.65 3.96 3.3 6 5 C5.01 6.485 5.01 6.485 4 8 C2.35 6.02 0.7 4.04 -1 2 C-0.67 1.34 -0.34 0.68 0 0 Z " fill="#615D58" transform="translate(384,580)"/>
<path d="M0 0 C-2.05233685 2.2477975 -3.00667261 3.0022242 -6 4 C-6.66 2.68 -7.32 1.36 -8 0 C-4.71303767 -0.79953138 -3.28976808 -1.09658936 0 0 Z " fill="#5C5853" transform="translate(296,451)"/>
<path d="M0 0 C2.31 0.33 4.62 0.66 7 1 C6.01 1.495 6.01 1.495 5 2 C5.33 2.99 5.66 3.98 6 5 C4.35 5 2.7 5 1 5 C0.67 3.35 0.34 1.7 0 0 Z " fill="#4F4941" transform="translate(312,433)"/>
<path d="M0 0 C-0.33 1.32 -0.66 2.64 -1 4 C-3.375 4.625 -3.375 4.625 -6 5 C-6.66 4.34 -7.32 3.68 -8 3 C-2.25 0 -2.25 0 0 0 Z " fill="#5D5C54" transform="translate(320,417)"/>
<path d="M0 0 C0.25 2.25 0.25 2.25 0 5 C-2 7.3125 -2 7.3125 -4 9 C-4.368 3.48 -4.368 3.48 -2.5625 1.125 C-1 0 -1 0 0 0 Z " fill="#5D5B52" transform="translate(565,742)"/>
<path d="M0 0 C0.99 0.66 1.98 1.32 3 2 C2.25 3.9375 2.25 3.9375 1 6 C-1.125 6.75 -1.125 6.75 -3 7 C-2.01 4.69 -1.02 2.38 0 0 Z " fill="#EFEFEB" transform="translate(299,658)"/>
<path d="M0 0 C2 0 2 0 3.5625 1.0625 C5.64056847 3.86337489 5.67810527 6.58791584 6 10 C3.25722422 6.80009492 1.3697164 3.99500618 0 0 Z " fill="#734F28" transform="translate(446,512)"/>
<path d="M0 0 C1.65 0 3.3 0 5 0 C4.34 1.32 3.68 2.64 3 4 C2.34 4 1.68 4 1 4 C0.67 4.99 0.34 5.98 0 7 C0 4.69 0 2.38 0 0 Z " fill="#594C3C" transform="translate(451,512)"/>
<path d="M0 0 C0.33 0.66 0.66 1.32 1 2 C1.66 2.33 2.32 2.66 3 3 C1.35 4.98 -0.3 6.96 -2 9 C-3 6 -3 6 -1.5625 2.8125 C-1.046875 1.884375 -0.53125 0.95625 0 0 Z " fill="#58554F" transform="translate(251,487)"/>
<path d="M0 0 C-0.33 1.98 -0.66 3.96 -1 6 C-1.66 6 -2.32 6 -3 6 C-3 5.34 -3 4.68 -3 4 C-4.32 3.67 -5.64 3.34 -7 3 C-2.25 0 -2.25 0 0 0 Z " fill="#5B5751" transform="translate(310,454)"/>
<path d="M0 0 C2.97 0.495 2.97 0.495 6 1 C6 1.99 6 2.98 6 4 C3.03 3.505 3.03 3.505 0 3 C0 2.01 0 1.02 0 0 Z " fill="#5B5A4F" transform="translate(336,809)"/>
<path d="M0 0 C0.66 0.33 1.32 0.66 2 1 C1.67 1.66 1.34 2.32 1 3 C0.34 3 -0.32 3 -1 3 C-1 3.66 -1 4.32 -1 5 C-2.32 5.33 -3.64 5.66 -5 6 C-5.33 5.34 -5.66 4.68 -6 4 C-4.02 2.68 -2.04 1.36 0 0 Z " fill="#5D5C54" transform="translate(512,769)"/>
<path d="M0 0 C2.72426311 2.35277269 3.8141763 4.62496331 5 8 C3.35 7.67 1.7 7.34 0 7 C0 4.69 0 2.38 0 0 Z " fill="#C77534" transform="translate(485,688)"/>
<path d="M0 0 C3 1 3 1 4.75 3.375 C6 6 6 6 5 9 C4.16094435 7.87926138 3.32892169 6.75325453 2.5 5.625 C2.0359375 4.99851562 1.571875 4.37203125 1.09375 3.7265625 C0 2 0 2 0 0 Z " fill="#C87D46" transform="translate(442,688)"/>
<path d="M0 0 C0.99 0 1.98 0 3 0 C3 2.97 3 5.94 3 9 C1.35649921 5.71299843 0.58678331 3.52069985 0 0 Z " fill="#48544C" transform="translate(491,588)"/>
<path d="M0 0 C0.66 1.32 1.32 2.64 2 4 C-0.97 6.475 -0.97 6.475 -4 9 C-2.80100302 5.9168649 -1.52299523 2.93720508 0 0 Z " fill="#E4E2DD" transform="translate(354,556)"/>
<path d="M0 0 C1.65 0.99 3.3 1.98 5 3 C4.67 3.99 4.34 4.98 4 6 C3.34 6 2.68 6 2 6 C1.67 5.34 1.34 4.68 1 4 C0.01 3.34 -0.98 2.68 -2 2 C-1.34 1.34 -0.68 0.68 0 0 Z " fill="#60584C" transform="translate(382,506)"/>
<path d="M0 0 C0.66 0 1.32 0 2 0 C2.33 1.65 2.66 3.3 3 5 C0.03 4.505 0.03 4.505 -3 4 C-1.625 2 -1.625 2 0 0 Z " fill="#636056" transform="translate(275,479)"/>
<path d="M0 0 C0.33 0.99 0.66 1.98 1 3 C0.34 3 -0.32 3 -1 3 C-1 4.65 -1 6.3 -1 8 C-2.32 6.35 -3.64 4.7 -5 3 C-4.360625 2.690625 -3.72125 2.38125 -3.0625 2.0625 C-1.06389179 1.1654837 -1.06389179 1.1654837 0 0 Z " fill="#644C33" transform="translate(429,472)"/>
<path d="M0 0 C0 2.83967231 -0.40267181 5.23735711 -1 8 C-2.32 7.01 -3.64 6.02 -5 5 C-3.35 3.35 -1.7 1.7 0 0 Z " fill="#696860" transform="translate(255,460)"/>
<path d="M0 0 C0.66 0.33 1.32 0.66 2 1 C1.67 2.32 1.34 3.64 1 5 C-0.98 4.34 -2.96 3.68 -5 3 C-2 1 -2 1 0 0 Z " fill="#EAEAE6" transform="translate(499,418)"/>
<path d="M0 0 C0.66 0 1.32 0 2 0 C2 1.98 2 3.96 2 6 C1.01 6 0.02 6 -1 6 C-1.042721 4.33388095 -1.04063832 2.66617115 -1 1 C-0.67 0.67 -0.34 0.34 0 0 Z " fill="#F27315" transform="translate(326,711)"/>
<path d="M0 0 C0.33 0.66 0.66 1.32 1 2 C1.66 2 2.32 2 3 2 C2.34 3.98 1.68 5.96 1 8 C0.34 7.34 -0.32 6.68 -1 6 C-0.625 2.875 -0.625 2.875 0 0 Z " fill="#5C5952" transform="translate(595,689)"/>
<path d="M0 0 C0.66 1.32 1.32 2.64 2 4 C1.34 4 0.68 4 0 4 C0 4.66 0 5.32 0 6 C-0.66 6 -1.32 6 -2 6 C-2.33 4.35 -2.66 2.7 -3 1 C-2.01 0.67 -1.02 0.34 0 0 Z " fill="#504B41" transform="translate(339,665)"/>
<path d="M0 0 C1.65 0 3.3 0 5 0 C4.34 1.32 3.68 2.64 3 4 C2.01 4 1.02 4 0 4 C0 2.68 0 1.36 0 0 Z " fill="#E0792E" transform="translate(428,634)"/>
<path d="M0 0 C0.66 0.33 1.32 0.66 2 1 C2 2.98 2 4.96 2 7 C1.34 7 0.68 7 0 7 C-0.38133299 5.0085944 -0.71325582 3.00720923 -1 1 C-0.67 0.67 -0.34 0.34 0 0 Z " fill="#EF741C" transform="translate(483,583)"/>
<path d="M0 0 C4 0 4 0 7 1 C5.6875 2.5 5.6875 2.5 4 4 C3.01 4 2.02 4 1 4 C0.67 2.68 0.34 1.36 0 0 Z " fill="#504A3F" transform="translate(395,524)"/>
<path d="M0 0 C0.99 0.33 1.98 0.66 3 1 C2.67 2.32 2.34 3.64 2 5 C1.34 5 0.68 5 0 5 C-0.33 5.66 -0.66 6.32 -1 7 C-1.625 5.1875 -1.625 5.1875 -2 3 C-1.34 2.01 -0.68 1.02 0 0 Z " fill="#615D53" transform="translate(226,495)"/>
<path d="M0 0 C0.66 0 1.32 0 2 0 C0.75023244 3.65316671 0.32901247 4.78065836 -3 7 C-2.67 5.35 -2.34 3.7 -2 2 C-1.34 2 -0.68 2 0 2 C0 1.34 0 0.68 0 0 Z " fill="#6B4A29" transform="translate(409,488)"/>
</svg>
