<?xml version="1.0" encoding="UTF-8"?>
<svg version="1.1" xmlns="http://www.w3.org/2000/svg" width="235" height="210">
<path d="M0 0 C77.55 0 155.1 0 235 0 C235 69.3 235 138.6 235 210 C157.45 210 79.9 210 0 210 C0 140.7 0 71.4 0 0 Z " fill="#555045" transform="translate(0,0)"/>
<path d="M0 0 C77.55 0 155.1 0 235 0 C235 69.3 235 138.6 235 210 C157.45 210 79.9 210 0 210 C0 140.7 0 71.4 0 0 Z M78 9 C78 9.66 78 10.32 78 11 C76.72382812 11.12375 76.72382812 11.12375 75.421875 11.25 C71.46648218 12.11693541 68.56792223 13.78527883 65.25 16 C64.63874268 16.40154297 64.02748535 16.80308594 63.39770508 17.21679688 C57.78911085 20.98673674 52.83819452 25.28481043 48 30 C47.21882813 30.73089844 46.43765625 31.46179688 45.6328125 32.21484375 C28.5282574 48.59951017 18.85827643 71.4884274 18 95 C17.94714844 96.3096875 17.89429687 97.619375 17.83984375 98.96875 C17.45948865 112.92272172 18.7422682 127.33754269 25 140 C25.69996094 141.45986328 25.69996094 141.45986328 26.4140625 142.94921875 C27.90161303 145.98916176 29.4381338 148.99765616 31 152 C31.43570312 152.85335937 31.87140625 153.70671875 32.3203125 154.5859375 C34.73114653 159.14984342 37.1837394 162.45632945 41 166 C42.02723499 167.22382174 43.04737283 168.45361661 44.0625 169.6875 C60.69994242 188.7221653 85.06214955 200.31877309 110.15844727 202.15820312 C130.12495317 203.19257814 148.81362563 199.3404239 166 189 C166.64549805 188.61682617 167.29099609 188.23365234 167.95605469 187.83886719 C191.42513207 173.68310008 207.84476344 150.83394207 214.96875 124.40625 C220.84067321 97.65637761 215.80313318 71.46474717 202 48 C197.19733084 40.68827463 191.55797956 33.79920506 185 28 C184.19046875 27.28328125 183.3809375 26.5665625 182.546875 25.828125 C173.98730912 18.54026605 164.77871423 12.39165473 154 9 C152.81535156 8.59910156 151.63070312 8.19820312 150.41015625 7.78515625 C125.49680208 -0.51121786 102.70527996 0.80628906 78 9 Z " fill="#FDFDFD" transform="translate(0,0)"/>
<path d="M0 0 C1.16015625 0.34828857 1.16015625 0.34828857 2.34375 0.70361328 C7.76726189 2.45074547 12.23023541 4.94169836 16.9375 8.125 C17.74316406 8.62902344 18.54882812 9.13304687 19.37890625 9.65234375 C32.2508312 18.20992185 42.92379206 28.9383296 50.9375 42.125 C51.41316406 42.8675 51.88882813 43.61 52.37890625 44.375 C65.93341606 66.81005073 68.26057546 94.35508512 62.265625 119.49609375 C60.38244603 126.50586532 57.39364709 132.77038561 53.9375 139.125 C53.40253906 140.15882813 52.86757812 141.19265625 52.31640625 142.2578125 C47.85339775 150.45604874 42.1453515 157.22434863 35.9375 164.125 C35.33808594 164.84300781 34.73867187 165.56101563 34.12109375 166.30078125 C19.46524137 182.72485712 -5.05509834 192.5450029 -26.60595703 194.33642578 C-53.34355804 195.76249932 -79.45210818 187.68534202 -99.7890625 169.93359375 C-101.05243207 168.79519953 -102.31032042 167.65069126 -103.5625 166.5 C-104.15015137 165.96173584 -104.73780273 165.42347168 -105.34326172 164.86889648 C-108.86337358 161.54174418 -111.44181196 158.18706646 -114.0625 154.125 C-114.7225 153.795 -115.3825 153.465 -116.0625 153.125 C-118.28273924 149.58499007 -120.12781135 145.82690994 -122.0625 142.125 C-122.65933594 141.0421875 -123.25617188 139.959375 -123.87109375 138.84375 C-131.03259262 125.41401449 -134.29357358 111.15198759 -134.1875 95.9375 C-134.18024902 94.82785889 -134.18024902 94.82785889 -134.17285156 93.69580078 C-133.90876466 69.22550868 -127.33827242 46.19727067 -110.0625 28.125 C-109.59505371 27.61420898 -109.12760742 27.10341797 -108.64599609 26.57714844 C-100.13886927 17.291142 -89.93098002 7.89791562 -78.0625 3.125 C-76.7425 3.125 -75.4225 3.125 -74.0625 3.125 C-74.0625 2.465 -74.0625 1.805 -74.0625 1.125 C-68.79011668 -0.37975428 -63.51175267 -1.8571099 -58.21923828 -3.28955078 C-56.57981994 -3.73457288 -54.94345781 -4.19087148 -53.30859375 -4.65234375 C-35.78616999 -8.94674814 -16.87825961 -5.13786335 0 0 Z M-85.0625 17.125 C-85.0625 17.785 -85.0625 18.445 -85.0625 19.125 C-86.12017578 19.4653125 -86.12017578 19.4653125 -87.19921875 19.8125 C-90.63961899 21.38954568 -93.14916776 23.56150348 -95.875 26.125 C-96.40125977 26.61701904 -96.92751953 27.10903809 -97.46972656 27.6159668 C-113.09627712 42.49941992 -124.72185055 63.49642013 -125.36328125 85.41796875 C-125.57010873 109.32722505 -122.03091878 131.28549178 -106.0625 150.125 C-105.47597656 150.8365625 -104.88945313 151.548125 -104.28515625 152.28125 C-102.59150593 154.27829799 -100.84321509 156.20547639 -99.0625 158.125 C-98.49402344 158.76953125 -97.92554687 159.4140625 -97.33984375 160.078125 C-93.36798113 164.3620023 -89.05588151 167.69534038 -84.1875 170.875 C-83.63505615 171.23972412 -83.0826123 171.60444824 -82.51342773 171.98022461 C-64.89588497 183.07914953 -42.03734686 188.02054313 -21.5625 184.3125 C-20.05762227 183.93563525 -18.55729027 183.54007357 -17.0625 183.125 C-16.25683594 182.94195312 -15.45117188 182.75890625 -14.62109375 182.5703125 C-1.22700512 179.3365683 11.35374064 174.02270306 21.9375 165.125 C22.77539062 164.44824219 23.61328125 163.77148438 24.4765625 163.07421875 C40.73478372 149.30758251 54.18949521 127.51205857 56.23486328 105.99707031 C57.6776595 78.82105909 51.71261903 53.93523725 33.66015625 32.91015625 C16.64993513 15.5094566 -3.69080919 3.61599903 -28.4375 2.95703125 C-49.84025372 2.74070234 -66.43183957 6.20224274 -85.0625 17.125 Z " fill="#5A574D" transform="translate(152.0625,7.875)"/>
<path d="M0 0 C0.66 0 1.32 0 2 0 C3.61795559 2.47128189 5.1057084 4.93516387 6.5625 7.5 C7.22958984 8.65435547 7.22958984 8.65435547 7.91015625 9.83203125 C11.18261815 15.51235575 14.3964206 21.22648621 17.58837891 26.95239258 C20.86148393 32.80819336 24.26821528 38.58188585 27.7265625 44.33007812 C29.80604563 47.81943736 31.57051081 51.18346904 33 55 C33.53625 55.886875 34.0725 56.77375 34.625 57.6875 C36.9964179 63.40046132 36.77760625 69.30144584 34.9375 75.1875 C33.04875218 79.64603453 29.80996865 83.06219285 26 86 C25.34 86 24.68 86 24 86 C25.69536513 91.08609539 27.47336621 95.0646934 30.81640625 99.26171875 C32 101 32 101 32.92578125 103.32421875 C34.63484878 107.58135059 37.15239617 111.35147292 39.5390625 115.2578125 C41 118 41 118 41 121 C23.16756982 122.62567737 23.16756982 122.62567737 18.546875 119.16015625 C17.01538537 116.49687895 16.00788036 113.90054119 15 111 C13.94765939 109.00418161 12.86434429 107.02437375 11.75 105.0625 C11.27046875 104.16660156 10.7909375 103.27070313 10.296875 102.34765625 C8.95738435 99.84592951 8.95738435 99.84592951 7 97 C5.07558585 96.49468134 5.07558585 96.49468134 2.8671875 96.48828125 C1.65869141 96.43510742 1.65869141 96.43510742 0.42578125 96.38085938 C-0.83685547 96.34702148 -0.83685547 96.34702148 -2.125 96.3125 C-2.97449219 96.27833984 -3.82398438 96.24417969 -4.69921875 96.20898438 C-6.79901105 96.12640827 -8.89948564 96.06153022 -11 96 C-11.226875 96.64710938 -11.45375 97.29421875 -11.6875 97.9609375 C-13.45716833 102.05856239 -15.71385119 105.79733371 -18 109.625 C-18.45117188 110.388125 -18.90234375 111.15125 -19.3671875 111.9375 C-21.1873106 115.00693836 -23.01982839 118.02974259 -25 121 C-27.06298828 121.34057617 -27.06298828 121.34057617 -29.5703125 121.29296875 C-30.46621094 121.28330078 -31.36210938 121.27363281 -32.28515625 121.26367188 C-33.22230469 121.23853516 -34.15945312 121.21339844 -35.125 121.1875 C-36.54232422 121.16719727 -36.54232422 121.16719727 -37.98828125 121.14648438 C-40.32608779 121.11106306 -42.66276237 121.06167271 -45 121 C-44.32991281 117.64180055 -43.05605508 115.02053669 -41.39453125 112.03515625 C-40.85521973 111.06594238 -40.3159082 110.09672852 -39.76025391 109.09814453 C-36.77965642 103.85212759 -33.74340817 98.63993462 -30.6875 93.4375 C-29.44087802 91.31150757 -28.19475749 89.18522099 -26.94921875 87.05859375 C-26.40612061 86.13361084 -25.86302246 85.20862793 -25.3034668 84.25561523 C-24.49641062 82.85902561 -23.72136014 81.44272028 -23 80 C-22.28457031 79.9906543 -21.56914063 79.98130859 -20.83203125 79.97167969 C-17.55401808 79.91761155 -14.27737639 79.83403529 -11 79.75 C-9.87464844 79.73582031 -8.74929687 79.72164063 -7.58984375 79.70703125 C0.63756457 79.46646376 7.06415896 78.36827647 13 72.1875 C15.44441507 68.29171349 15.79332061 66.5219275 15 62 C13.92716336 60.10352893 12.71803018 58.45974505 11.36328125 56.75390625 C10.03271254 55.04208577 8.98347437 53.333589 7.9375 51.4375 C6.09810085 48.06011713 6.09810085 48.06011713 4.125 45.25 C1.7069008 41.55173063 -0.32614125 37.71783842 -2.40234375 33.8203125 C-4.36567518 30.35448049 -6.61643466 27.16342721 -8.99609375 23.97265625 C-10 22 -10 22 -9.8125 19.8671875 C-9 18 -9 18 -6.5625 16.0625 C-3.79111981 13.83187692 -3.02272167 12.3470891 -2 9 C-1.34 9 -0.68 9 0 9 C0 6.03 0 3.06 0 0 Z " fill="#E47725" transform="translate(123,33)"/>
<path d="M0 0 C0.91265625 0.15984375 1.8253125 0.3196875 2.765625 0.484375 C17.37602798 3.3752034 29.11641056 12.30158671 40 22 C41.27004125 23.00100579 42.54074817 24.00116836 43.8125 25 C59.14694622 38.29232868 67.66131873 61.22579044 69.23291016 80.91845703 C70.21351535 96.92342334 68.45708642 110.30840673 62 125 C61.48308594 126.19625 60.96617187 127.3925 60.43359375 128.625 C52.25969352 145.34154784 37.97268399 161.07431724 21 169 C20.12553223 169.41161377 20.12553223 169.41161377 19.23339844 169.83154297 C-5.86354733 181.54220052 -28.80271918 183.08601965 -55.14746094 174.06494141 C-74.80704043 166.72540993 -92.9824197 150.20807096 -102.29052734 131.39111328 C-103.50171603 128.65615511 -104.63847728 125.90187036 -105.75 123.125 C-106.13542969 122.20847656 -106.52085938 121.29195313 -106.91796875 120.34765625 C-114.47506366 101.75563384 -115.2216774 77.79430329 -108 59 C-107.56429687 57.81664062 -107.12859375 56.63328125 -106.6796875 55.4140625 C-100.56338631 40.00633108 -88.95799709 22.39949068 -74 14 C-73.34 14 -72.68 14 -72 14 C-72 13.34 -72 12.68 -72 12 C-49.53308118 -0.49172814 -25.58090751 -6.19661735 0 0 Z M-69 17 C-69.92296875 17.44859375 -70.8459375 17.8971875 -71.796875 18.359375 C-83.58046558 24.39487261 -91.45547242 35.89364655 -98 47 C-98.52335937 47.86238281 -99.04671875 48.72476563 -99.5859375 49.61328125 C-103.62513775 56.8960817 -105.18645672 64.94573425 -107 73 C-107.26478149 73.95592041 -107.26478149 73.95592041 -107.53491211 74.93115234 C-110.47241728 87.99803886 -107.98957726 102.47907759 -104 115 C-103.69964844 116.07636719 -103.39929688 117.15273437 -103.08984375 118.26171875 C-97.37165215 137.59465225 -80.78661669 155.58382406 -63.38793945 165.24975586 C-41.32895054 176.99049391 -16.7618531 178.08686847 7 171 C10.19312709 169.92017618 13.05320743 168.62863397 16 167 C16.89332031 166.54238281 17.78664063 166.08476562 18.70703125 165.61328125 C38.59229552 154.84969784 54.40641416 136.86085451 61.3125 115.1875 C63.57426871 107.50512104 64.19427185 100.40390197 64.1875 92.4375 C64.18669434 91.45749023 64.18588867 90.47748047 64.18505859 89.46777344 C64.12335113 82.14273444 63.43559093 75.18828267 62 68 C61.91363281 67.2059375 61.82726562 66.411875 61.73828125 65.59375 C59.45695886 47.8172119 44.92789255 31.05400945 31.69921875 20.09375 C4.92845698 0.29688416 -42.84168747 -9.51763001 -69 17 Z " fill="#EBE9E6" transform="translate(139,13)"/>
<path d="M0 0 C4.28738241 1.42912747 5.28920682 4.59181866 7.3125 8.375 C7.90853027 9.46276733 7.90853027 9.46276733 8.51660156 10.57250977 C9.68612922 12.7105673 10.84375181 14.85474023 12 17 C13.08296048 18.97937071 14.16623349 20.9585705 15.25 22.9375 C15.94222656 24.21947266 15.94222656 24.21947266 16.6484375 25.52734375 C17.57227417 27.21748425 18.51600329 28.89686287 19.4765625 30.56640625 C20.16878906 31.77103516 20.16878906 31.77103516 20.875 33 C21.28492187 33.70125 21.69484375 34.4025 22.1171875 35.125 C23 37 23 37 23 40 C20.9888556 42.43423817 18.66804044 44.31930093 16 46 C13.25 46.1875 13.25 46.1875 11 45 C9.5 42.8125 9.5 42.8125 8 40 C6.39794915 37.93814604 4.70393833 35.98025265 3 34 C-0.0620422 34.64897318 -0.0620422 34.64897318 -1.00537109 36.77197266 C-1.30008301 37.5201123 -1.59479492 38.26825195 -1.8984375 39.0390625 C-3.83648646 43.69221702 -6.13002775 48.00097538 -8.625 52.375 C-12.21057424 58.73911035 -15.68696956 65.14707668 -19.0625 71.625 C-23.53083642 80.18960607 -28.22373856 88.60302425 -33 97 C-38.94 97 -44.88 97 -51 97 C-50.14204937 92.71024685 -49.26239377 90.19327103 -47.296875 86.4140625 C-46.73484375 85.32939697 -46.1728125 84.24473145 -45.59375 83.12719727 C-44.9853125 81.97147217 -44.376875 80.81574707 -43.75 79.625 C-43.11969726 78.41793666 -42.48949011 77.21082341 -41.859375 76.00366211 C-37.20304826 67.12084724 -32.32507857 58.3730552 -27.34375 49.66821289 C-24.19473904 44.15695655 -21.22318559 38.61154776 -18.4609375 32.89453125 C-16.2107424 28.436257 -13.72889098 24.111118 -11.24511719 19.77954102 C-8.66385798 15.26003886 -6.29452864 10.67211714 -4 6 C-3.34 6 -2.68 6 -2 6 C-1.855625 5.195625 -1.71125 4.39125 -1.5625 3.5625 C-1 1 -1 1 0 0 Z " fill="#F9F9F7" transform="translate(106,54)"/>
<path d="M0 0 C3.25313989 1.34472171 4.62690433 2.40578548 6.0625 5.625 C14.45359587 26.68565564 13.39305864 51.26714681 5 72 C4.34 70.68 3.68 69.36 3 68 C2.01 68.495 2.01 68.495 1 69 C1.28875 68.02804688 1.5775 67.05609375 1.875 66.0546875 C6.33866213 49.9250874 6.38340905 33.38404245 3 17 C2.83242187 16.07832031 2.66484375 15.15664062 2.4921875 14.20703125 C1.64665144 9.66395257 0.60211815 5.34860641 -1 1 C-0.67 0.67 -0.34 0.34 0 0 Z " fill="#E0DEDA" transform="translate(197,64)"/>
<path d="M0 0 C-3 2 -3 2 -6 3 C-5.67 3.66 -5.34 4.32 -5 5 C-5.90621094 5.30292969 -6.81242187 5.60585938 -7.74609375 5.91796875 C-14.26630646 8.16036995 -20.41574032 10.47014211 -26.328125 14.08203125 C-28 15 -28 15 -30 15 C-30.33 15.99 -30.66 16.98 -31 18 C-31.66 17.67 -32.32 17.34 -33 17 C-32.505 16.1028125 -32.505 16.1028125 -32 15.1875 C-30.79212012 12.94613529 -30.79212012 12.94613529 -31 10 C-10.40072559 -0.78496042 -10.40072559 -0.78496042 0 0 Z " fill="#EAE8E6" transform="translate(101,13)"/>
<path d="M0 0 C0.33 0 0.66 0 1 0 C1 9.24 1 18.48 1 28 C1.33 22.39 1.66 16.78 2 11 C2.33 11 2.66 11 3 11 C3.03867187 12.56234375 3.03867187 12.56234375 3.078125 14.15625 C3.38577655 22.71117509 4.2935201 30.58849559 6.71582031 38.8203125 C7.69155051 42.21690841 8.33657922 44.64163322 7 48 C6.67 46.35 6.34 44.7 6 43 C5.34 43 4.68 43 4 43 C3.67 43.99 3.34 44.98 3 46 C2.5160345 44.45983306 2.03807613 42.91777806 1.5625 41.375 C1.29566406 40.51648438 1.02882813 39.65796875 0.75390625 38.7734375 C-0.62538499 33.69936092 -1.12733174 28.86424424 -1.1328125 23.61328125 C-1.13410156 22.42798828 -1.13539062 21.24269531 -1.13671875 20.02148438 C-1.13285156 18.79751953 -1.12898438 17.57355469 -1.125 16.3125 C-1.12886719 15.07693359 -1.13273437 13.84136719 -1.13671875 12.56835938 C-1.13542969 11.38693359 -1.13414063 10.20550781 -1.1328125 8.98828125 C-1.13168457 7.91102783 -1.13055664 6.83377441 -1.12939453 5.72387695 C-1 3 -1 3 0 0 Z " fill="#E5E4E0" transform="translate(28,84)"/>
<path d="M0 0 C8.25 0 16.5 0 25 0 C24.67 0.66 24.34 1.32 24 2 C16.41 2 8.82 2 1 2 C0.67 4.64 0.34 7.28 0 10 C-1.875 13 -1.875 13 -4 15 C-4.99 15 -5.98 15 -7 15 C-6.67 16.98 -6.34 18.96 -6 21 C-7.65 21.33 -9.3 21.66 -11 22 C-11.33 23.32 -11.66 24.64 -12 26 C-12.66 26 -13.32 26 -14 26 C-12.65788025 22.444218 -11.07755303 19.20894833 -9.1796875 15.91796875 C-8.69741699 15.0777417 -8.21514648 14.23751465 -7.71826172 13.37182617 C-7.10998535 12.32099854 -6.50170898 11.2701709 -5.875 10.1875 C-3.93625 6.825625 -1.9975 3.46375 0 0 Z " fill="#D1762D" transform="translate(100,113)"/>
<path d="M0 0 C0.33 0 0.66 0 1 0 C0.26802813 11.38408887 0.26802813 11.38408887 -1 16.125 C-2.84759514 23.52916857 -2.68884612 31.40948302 -3 39 C-3.66 38.67 -4.32 38.34 -5 38 C-5.0293908 34.35418402 -5.04692874 30.70839913 -5.0625 27.0625 C-5.07087891 26.04091797 -5.07925781 25.01933594 -5.08789062 23.96679688 C-5.14443063 6.26977483 -5.14443063 6.26977483 0 0 Z " fill="#F8F7F3" transform="translate(33,74)"/>
<path d="M0 0 C1.06283203 -0.00322266 2.12566406 -0.00644531 3.22070312 -0.00976562 C8.49592814 0.02647889 13.01714786 0.17210418 17.9375 2.3125 C17.9375 2.6425 17.9375 2.9725 17.9375 3.3125 C17.14166504 3.33755615 16.34583008 3.3626123 15.52587891 3.38842773 C11.87129832 3.50546986 8.21690825 3.62769962 4.5625 3.75 C3.31082031 3.78931641 2.05914062 3.82863281 0.76953125 3.86914062 C-6.2115422 4.10671642 -13.12479936 4.48754727 -20.0625 5.3125 C-18.74037907 2.66825813 -17.01319104 2.01450381 -14.34033203 0.93212891 C-9.64903853 -0.3440236 -4.82592548 -0.07343161 0 0 Z " fill="#F6F5F2" transform="translate(114.0625,11.6875)"/>
<path d="M0 0 C3.39852826 3.11721832 5.68014727 6.43654404 8.0625 10.375 C8.73410156 11.47585937 9.40570313 12.57671875 10.09765625 13.7109375 C11.86673217 16.76958621 13.57798465 19.76433229 15 23 C14.67 23.66 14.34 24.32 14 25 C13.01 24.67 12.02 24.34 11 24 C11 22.68 11 21.36 11 20 C10.34 20 9.68 20 9 20 C8.34 19.34 7.68 18.68 7 18 C6.360625 17.401875 5.72125 16.80375 5.0625 16.1875 C1.36596776 12.2669355 -0.17901255 9.60249011 -0.1875 4.1875 C-0.13966204 2.79108728 -0.08204828 1.39482079 0 0 Z " fill="#60513E" transform="translate(113,55)"/>
<path d="M0 0 C20.3494969 -0.37957611 20.3494969 -0.37957611 30 2 C31.06347656 2.22945312 32.12695312 2.45890625 33.22265625 2.6953125 C42.32598454 4.75685288 42.32598454 4.75685288 45 8 C43.68 8 42.36 8 41 8 C41 7.34 41 6.68 41 6 C38.03 5.67 35.06 5.34 32 5 C32 5.66 32 6.32 32 7 C27.71 6.34 23.42 5.68 19 5 C19.66 4.34 20.32 3.68 21 3 C18.26750659 2.24722485 15.71899317 1.83358297 12.890625 1.68359375 C12.13652344 1.64169922 11.38242188 1.59980469 10.60546875 1.55664062 C9.43951172 1.49766602 9.43951172 1.49766602 8.25 1.4375 C7.06083984 1.37272461 7.06083984 1.37272461 5.84765625 1.30664062 C3.89862185 1.20097009 1.94933252 1.10002034 0 1 C0 0.67 0 0.34 0 0 Z " fill="#D4D2CD" transform="translate(109,11)"/>
<path d="M0 0 C1 2 1 2 0.44140625 3.9453125 C0.15136719 4.66460937 -0.13867188 5.38390625 -0.4375 6.125 C-0.72496094 6.84945312 -1.01242188 7.57390625 -1.30859375 8.3203125 C-1.53675781 8.87460938 -1.76492187 9.42890625 -2 10 C-2.66 10 -3.32 10 -4 10 C-4 10.99 -4 11.98 -4 13 C1.61 13 7.22 13 13 13 C13.66 11.35 14.32 9.7 15 8 C15.33 7.34 15.66 6.68 16 6 C16.66 6.33 17.32 6.66 18 7 C16.708375 10.06022404 15.322222 12.60369879 13 15 C9.52391554 16.00313046 6.26958372 15.76327682 2.6875 15.5 C1.75615234 15.46390625 0.82480469 15.4278125 -0.13476562 15.390625 C-2.42741807 15.29656746 -4.71157091 15.16539029 -7 15 C-6.17790325 11.35684925 -4.76593738 8.51784553 -2.9375 5.25 C-2.11572266 3.77273437 -2.11572266 3.77273437 -1.27734375 2.265625 C-0.64505859 1.14414063 -0.64505859 1.14414063 0 0 Z " fill="#C07135" transform="translate(85,139)"/>
<path d="M0 0 C0.66 0 1.32 0 2 0 C2.95921722 1.74951568 3.91733817 3.49963244 4.875 5.25 C5.67550781 6.71179688 5.67550781 6.71179688 6.4921875 8.203125 C7.70205428 10.44733384 8.85980257 12.71960514 10 15 C15.61 15.33 21.22 15.66 27 16 C27.33 15.01 27.66 14.02 28 13 C28.33 14.65 28.66 16.3 29 18 C11.07438554 19.63417243 11.07438554 19.63417243 6.44140625 15.984375 C4.92818068 13.35883037 3.91672889 10.8836073 3 8 C2.38125 6.845 1.7625 5.69 1.125 4.5 C0 2 0 2 0 0 Z " fill="#C67332" transform="translate(135,136)"/>
<path d="M0 0 C1.32 0.33 2.64 0.66 4 1 C1.72114699 5.43776639 -1.34180347 8.25496742 -5.1875 11.3125 C-5.74630859 11.76689453 -6.30511719 12.22128906 -6.88085938 12.68945312 C-8.24836856 13.79982383 -9.62343204 14.90087985 -11 16 C-11.33 15.01 -11.66 14.02 -12 13 C-10.7421875 10.80859375 -10.7421875 10.80859375 -8.875 8.4375 C-8.27429687 7.65246094 -7.67359375 6.86742187 -7.0546875 6.05859375 C-4.81638985 3.81604078 -2.99212326 2.95768651 0 2 C0 1.34 0 0.68 0 0 Z " fill="#EEEDE9" transform="translate(67,25)"/>
<path d="M0 0 C0.33 0 0.66 0 1 0 C1.50610724 6.07328688 0.04157942 9.77228537 -3 15 C-3.99 15 -4.98 15 -6 15 C-6 15.66 -6 16.32 -6 17 C-6.66 17 -7.32 17 -8 17 C-7.68028731 10.92545895 -4.32686711 4.32686711 0 0 Z " fill="#F1EFEC" transform="translate(200,131)"/>
<path d="M0 0 C8.25 0 16.5 0 25 0 C24.67 0.66 24.34 1.32 24 2 C16.41 2 8.82 2 1 2 C0.67 3.32 0.34 4.64 0 6 C-0.66 6 -1.32 6 -2 6 C-1.34 4.02 -0.68 2.04 0 0 Z " fill="#C47337" transform="translate(100,113)"/>
<path d="M0 0 C0.66 0.33 1.32 0.66 2 1 C-1.3 6.28 -4.6 11.56 -8 17 C-8.66666667 14.33333333 -9.33333333 11.66666667 -10 9 C-9.34 9 -8.68 9 -8 9 C-7.67 7.68 -7.34 6.36 -7 5 C-5.35 5 -3.7 5 -2 5 C-1.34 3.35 -0.68 1.7 0 0 Z " fill="#6D4D2D" transform="translate(96,118)"/>
<path d="M0 0 C0.99 0.66 1.98 1.32 3 2 C2.67 5.96 2.34 9.92 2 14 C1.34 14 0.68 14 0 14 C-0.33 15.65 -0.66 17.3 -1 19 C-1.99 19.33 -2.98 19.66 -4 20 C-4 18.35 -4 16.7 -4 15 C-3.01 15 -2.02 15 -1 15 C-0.972807 13.41676312 -0.95351694 11.83338938 -0.9375 10.25 C-0.92009766 8.92742188 -0.92009766 8.92742188 -0.90234375 7.578125 C-0.99173802 5.2181162 -1.33087179 3.25501476 -2 1 C-1.34 0.67 -0.68 0.34 0 0 Z " fill="#664C32" transform="translate(121,28)"/>
<path d="M0 0 C0.66 0 1.32 0 2 0 C0.39369175 4.24292532 -1.5768162 8.27025107 -3.625 12.3125 C-4.11226563 13.28026367 -4.11226563 13.28026367 -4.609375 14.26757812 C-5.40441956 15.84597541 -6.20195634 17.42311694 -7 19 C-7.87776229 15.85577687 -7.97911796 14.13317747 -7 11 C-6.87625 10.360625 -6.7525 9.72125 -6.625 9.0625 C-5.80586366 6.35935009 -4.65178412 4.2870857 -3 2 C-2.01 2 -1.02 2 0 2 C0 1.34 0 0.68 0 0 Z " fill="#5F4D3B" transform="translate(85,135)"/>
<path d="M0 0 C0.33 0.99 0.66 1.98 1 3 C1.99 3.33 2.98 3.66 4 4 C3.34 4 2.68 4 2 4 C2 5.32 2 6.64 2 8 C1.34 8 0.68 8 0 8 C0 8.66 0 9.32 0 10 C-0.61617187 10.24621094 -1.23234375 10.49242187 -1.8671875 10.74609375 C-4.42178996 12.24797542 -4.9650131 13.3769841 -6.125 16.0625 C-7.80555556 19.90277778 -7.80555556 19.90277778 -10 21 C-8.51991304 15.99886406 -6.3681664 11.67084403 -3.875 7.125 C-3.50246094 6.43664062 -3.12992187 5.74828125 -2.74609375 5.0390625 C-1.83500474 3.35705202 -0.91809685 1.67819564 0 0 Z " fill="#66645B" transform="translate(85,127)"/>
<path d="M0 0 C0.33 0.66 0.66 1.32 1 2 C1.66 2 2.32 2 3 2 C3 1.34 3 0.68 3 0 C3.66 0 4.32 0 5 0 C3.75768487 3.44025728 2.50521315 6.30207814 0 9 C-1.32796291 9.35412344 -2.66216607 9.68521554 -4 10 C-5.7074998 11.28062485 -7.38263741 12.6072711 -9 14 C-7.45158425 10.65291949 -5.50894136 7.75332488 -3.375 4.75 C-2.74335938 3.85796875 -2.11171875 2.9659375 -1.4609375 2.046875 C-0.73777344 1.03367188 -0.73777344 1.03367188 0 0 Z " fill="#E5E2DF" transform="translate(191,146)"/>
<path d="M0 0 C3.44428265 1.44781793 5.36130962 3.27694609 7.75 6.125 C8.36359375 6.84945312 8.9771875 7.57390625 9.609375 8.3203125 C10.29773438 9.15175781 10.29773438 9.15175781 11 10 C9.02 10.99 9.02 10.99 7 12 C1.21538462 7.93846154 1.21538462 7.93846154 0.125 3.1875 C0.08375 2.135625 0.0425 1.08375 0 0 Z " fill="#E8E7E3" transform="translate(48,155)"/>
<path d="M0 0 C0.33 1.32 0.66 2.64 1 4 C1.66 4 2.32 4 3 4 C2.01 7.63 1.02 11.26 0 15 C-0.66 14.34 -1.32 13.68 -2 13 C-3.485 15.475 -3.485 15.475 -5 18 C-6 16 -6 16 -4.78515625 12.3046875 C-4.21866415 10.82514342 -3.64408111 9.34867819 -3.0625 7.875 C-2.77181641 7.12089844 -2.48113281 6.36679688 -2.18164062 5.58984375 C-1.46125002 3.72391398 -0.73149596 1.8616042 0 0 Z " fill="#E0DFDB" transform="translate(35,62)"/>
<path d="M0 0 C0.33 0 0.66 0 1 0 C1.3327958 3.66075376 1.46170299 5.39500988 -0.8125 8.375 C-3 10 -3 10 -6 10 C-5.36771484 11.12148438 -5.36771484 11.12148438 -4.72265625 12.265625 C-4.17480469 13.25046875 -3.62695312 14.2353125 -3.0625 15.25 C-2.51722656 16.22453125 -1.97195312 17.1990625 -1.41015625 18.203125 C-0.23389165 20.53610409 0.52101691 22.45350762 1 25 C-1.42163542 22.71695215 -3.35175667 20.29468033 -5.25 17.5625 C-5.79140625 16.80066406 -6.3328125 16.03882812 -6.890625 15.25390625 C-8 13 -8 13 -7.82421875 10.8359375 C-7 9 -7 9 -4.5625 7.0625 C-1.79111981 4.83187692 -1.02272167 3.3470891 0 0 Z " fill="#BE7437" transform="translate(121,42)"/>
<path d="M0 0 C0.66 0.33 1.32 0.66 2 1 C1.35550393 4.01217112 0.34977818 6.51655836 -1.0625 9.25 C-1.42472656 9.95640625 -1.78695312 10.6628125 -2.16015625 11.390625 C-2.43730469 11.92171875 -2.71445312 12.4528125 -3 13 C-3.99 13 -4.98 13 -6 13 C-6.25 7.375 -6.25 7.375 -4 4 C-3.01 4 -2.02 4 -1 4 C-0.67 2.68 -0.34 1.36 0 0 Z " fill="#F0EEEA" transform="translate(42,53)"/>
<path d="M0 0 C2.97 0.33 5.94 0.66 9 1 C9 1.66 9 2.32 9 3 C10.65 3 12.3 3 14 3 C14.33 3.99 14.66 4.98 15 6 C12.19966161 7.11346788 11.09856297 7.03510273 8.203125 6.00390625 C7.22859375 5.52824219 6.2540625 5.05257813 5.25 4.5625 C4.26515625 4.08941406 3.2803125 3.61632812 2.265625 3.12890625 C1.51796875 2.75636719 0.7703125 2.38382813 0 2 C0 1.34 0 0.68 0 0 Z " fill="#F3F2ED" transform="translate(141,16)"/>
<path d="M0 0 C0 0.66 0 1.32 0 2 C0.66 2.66 1.32 3.32 2 4 C-1.96 4.99 -5.92 5.98 -10 7 C-10 6.34 -10 5.68 -10 5 C-8.68 5 -7.36 5 -6 5 C-6 4.34 -6 3.68 -6 3 C-6.99 3.495 -6.99 3.495 -8 4 C-10.6723621 4.13415472 -13.32250488 4.04318541 -16 4 C-16 3.67 -16 3.34 -16 3 C-14.08487728 2.49411853 -12.16783078 1.99551609 -10.25 1.5 C-8.64898437 1.08234375 -8.64898437 1.08234375 -7.015625 0.65625 C-4 0 -4 0 0 0 Z " fill="#DFDCD9" transform="translate(144,184)"/>
<path d="M0 0 C0.66 0 1.32 0 2 0 C14.68381357 17.2683245 14.68381357 17.2683245 13.66015625 24.3515625 C13.44230469 24.89554688 13.22445312 25.43953125 13 26 C8.66666667 17.33333333 4.33333333 8.66666667 0 0 Z " fill="#6F4F31" transform="translate(145,68)"/>
<path d="M0 0 C2.97456197 2.97456197 3.17394872 5.65044465 3.25 9.6875 C3.19775783 14.78484327 2.21274051 18.41061227 0 23 C-0.99 23.66 -1.98 24.32 -3 25 C-1.125 19.25 -1.125 19.25 0 17 C0.07194869 14.11629667 0.09291708 11.25760336 0.0625 8.375 C0.05798828 7.57320313 0.05347656 6.77140625 0.04882812 5.9453125 C0.03703168 3.96350994 0.01909605 1.98174567 0 0 Z " fill="#C17236" transform="translate(156,89)"/>
<path d="M0 0 C0.8125 1.6875 0.8125 1.6875 1 4 C-1.3125 6.5 -1.3125 6.5 -4 9 C-6.46952775 12.52789679 -6.16209613 15.78550064 -6 20 C-8.20960033 18.27074757 -9.06458538 16.85043386 -10.1875 14.25 C-10 11 -10 11 -8.34375 9.1953125 C-6.9215111 7.9946543 -5.46664288 6.83148649 -3.98046875 5.7109375 C-1.91922601 3.93021892 -1.02928976 2.49425773 0 0 Z " fill="#744F2E" transform="translate(157,108)"/>
<path d="M0 0 C20.72340426 -0.76595745 20.72340426 -0.76595745 29 4 C29 4.33 29 4.66 29 5 C25.7 5 22.4 5 19 5 C19.66 4.34 20.32 3.68 21 3 C18.26750659 2.24722485 15.71899317 1.83358297 12.890625 1.68359375 C12.13652344 1.64169922 11.38242188 1.59980469 10.60546875 1.55664062 C9.43951172 1.49766602 9.43951172 1.49766602 8.25 1.4375 C7.06083984 1.37272461 7.06083984 1.37272461 5.84765625 1.30664062 C3.89862185 1.20097009 1.94933252 1.10002034 0 1 C0 0.67 0 0.34 0 0 Z " fill="#E1DFDC" transform="translate(109,11)"/>
<path d="M0 0 C0.99386719 0.00902344 1.98773438 0.01804688 3.01171875 0.02734375 C4.15060547 0.04474609 4.15060547 0.04474609 5.3125 0.0625 C-1.01677152 3.7140028 -7.98896131 3.19058916 -15.0625 3.125 C-15.98933594 3.12048828 -16.91617188 3.11597656 -17.87109375 3.11132812 C-20.14329709 3.09961574 -22.41536388 3.08321372 -24.6875 3.0625 C-24.6875 2.7325 -24.6875 2.4025 -24.6875 2.0625 C-23.56730469 2.00191406 -22.44710937 1.94132813 -21.29296875 1.87890625 C-19.82030016 1.79448576 -18.34764456 1.70983851 -16.875 1.625 C-16.13701172 1.58568359 -15.39902344 1.54636719 -14.63867188 1.50585938 C-9.5882045 1.20877306 -5.06365415 -0.0595724 0 0 Z " fill="#9C9A94" transform="translate(132.6875,198.9375)"/>
<path d="M0 0 C-3 2 -3 2 -6 3 C-5.67 3.66 -5.34 4.32 -5 5 C-7.64 5.33 -10.28 5.66 -13 6 C-13 5.34 -13 4.68 -13 4 C-13.66 3.67 -14.32 3.34 -15 3 C-9.63560356 0.31780178 -5.98993047 -0.3152595 0 0 Z " fill="#DBDAD6" transform="translate(101,13)"/>
<path d="M0 0 C2.04136395 -0.05451714 4.08315856 -0.09302485 6.125 -0.125 C7.83042969 -0.15980469 7.83042969 -0.15980469 9.5703125 -0.1953125 C13.05757767 0.00327891 15.7553862 0.7475199 19 2 C19 2.33 19 2.66 19 3 C12.25766581 3.12910853 5.69613196 2.797837 -1 2 C-0.67 1.34 -0.34 0.68 0 0 Z " fill="#FCFBFA" transform="translate(113,12)"/>
<path d="M0 0 C0.66 0.33 1.32 0.66 2 1 C1.67 2.98 1.34 4.96 1 7 C0.34 7 -0.32 7 -1 7 C-1.33 7.66 -1.66 8.32 -2 9 C-2 8.34 -2 7.68 -2 7 C-2.66 7 -3.32 7 -4 7 C-4.33 8.32 -4.66 9.64 -5 11 C-5.66 11 -6.32 11 -7 11 C-5.125 5.25 -5.125 5.25 -4 3 C-2.68 3 -1.36 3 0 3 C0 2.01 0 1.02 0 0 Z " fill="#656359" transform="translate(93,116)"/>
<path d="M0 0 C0.66 0.33 1.32 0.66 2 1 C1.34 1.66 0.68 2.32 0 3 C0 3.99 0 4.98 0 6 C-0.804375 6.268125 -1.60875 6.53625 -2.4375 6.8125 C-3.283125 7.204375 -4.12875 7.59625 -5 8 C-5.33 8.99 -5.66 9.98 -6 11 C-6.66 10.67 -7.32 10.34 -8 10 C-7.505 9.1028125 -7.505 9.1028125 -7 8.1875 C-5.79212012 5.94613529 -5.79212012 5.94613529 -6 3 C-4.03533587 1.93224776 -2.03144641 0.93446535 0 0 Z " fill="#DCDAD7" transform="translate(76,20)"/>
<path d="M0 0 C2.56687367 3.8503105 1.83288724 5.58569763 1 10 C-0.32 10 -1.64 10 -3 10 C-3.33 8.02 -3.66 6.04 -4 4 C-3.34 4 -2.68 4 -2 4 C-1.34 2.68 -0.68 1.36 0 0 Z " fill="#545049" transform="translate(198,46)"/>
<path d="M0 0 C1.75 2.1875 1.75 2.1875 3 5 C2.6875 7.8125 2.6875 7.8125 2 10 C-0.38672669 7.03716687 -2.7353371 4.05729491 -5 1 C-3 0 -3 0 0 0 Z " fill="#5C5850" transform="translate(111,52)"/>
<path d="M0 0 C0.33 1.32 0.66 2.64 1 4 C-0.98 4.99 -0.98 4.99 -3 6 C-3.33 5.67 -3.66 5.34 -4 5 C-6.85877909 4.76298761 -9.69883297 4.57780818 -12.5625 4.4375 C-13.36880859 4.39431641 -14.17511719 4.35113281 -15.00585938 4.30664062 C-17.00368805 4.20024738 -19.0018207 4.09959112 -21 4 C-21 3.67 -21 3.34 -21 3 C-11.1 2.505 -11.1 2.505 -1 2 C-0.67 1.34 -0.34 0.68 0 0 Z " fill="#6A4F36" transform="translate(99,151)"/>
<path d="M0 0 C0.66 0 1.32 0 2 0 C5 4.38461538 5 4.38461538 5 7 C3.35 7.66 1.7 8.32 0 9 C0 6.03 0 3.06 0 0 Z " fill="#D57732" transform="translate(123,33)"/>
<path d="M0 0 C0 3 0 3 -1.42578125 4.7890625 C-2.04839844 5.39492188 -2.67101563 6.00078125 -3.3125 6.625 C-4.23482422 7.54152344 -4.23482422 7.54152344 -5.17578125 8.4765625 C-7 10 -7 10 -10 11 C-8.55218207 7.55571735 -6.72305391 5.63869038 -3.875 3.25 C-3.15054688 2.63640625 -2.42609375 2.0228125 -1.6796875 1.390625 C-0.84824219 0.70226563 -0.84824219 0.70226563 0 0 Z " fill="#716E68" transform="translate(61,36)"/>
<path d="M0 0 C3.65882521 3.3621637 6.14420341 6.36050852 8 11 C7.67 11.66 7.34 12.32 7 13 C5.82479354 11.40207898 4.66008753 9.79643092 3.5 8.1875 C2.8503125 7.29417969 2.200625 6.40085937 1.53125 5.48046875 C0 3 0 3 0 0 Z " fill="#CA7636" transform="translate(125,72)"/>
<path d="M0 0 C3.6739599 3.37607126 6.05406554 6.39120786 8 11 C8 11.66 8 12.32 8 13 C7.34 13 6.68 13 6 13 C4.5393715 10.35261084 4 9.10551666 4 6 C3.01 6 2.02 6 1 6 C0.67 4.02 0.34 2.04 0 0 Z " fill="#775133" transform="translate(128,80)"/>
<path d="M0 0 C0.99 0.33 1.98 0.66 3 1 C3.8125 2.875 3.8125 2.875 4 5 C3.01 6.485 3.01 6.485 2 8 C1.01 8 0.02 8 -1 8 C-1.04241723 5.66705225 -1.04092937 3.33297433 -1 1 C-0.67 0.67 -0.34 0.34 0 0 Z " fill="#524F44" transform="translate(168,18)"/>
<path d="M0 0 C-2.0625 2.5625 -2.0625 2.5625 -5 5 C-8.8125 4.8125 -8.8125 4.8125 -12 4 C-9.94577945 1.94577945 -8.66990976 1.31862408 -6 0.3125 C-5.29875 0.04050781 -4.5975 -0.23148438 -3.875 -0.51171875 C-2 -1 -2 -1 0 0 Z " fill="#807E79" transform="translate(158,184)"/>
<path d="M0 0 C3.3 0 6.6 0 10 0 C9.67 0.99 9.34 1.98 9 3 C6.1875 3.1875 6.1875 3.1875 3 3 C2.01 2.01 1.02 1.02 0 0 Z " fill="#594A3F" transform="translate(78,155)"/>
<path d="M0 0 C1.32 0.33 2.64 0.66 4 1 C4 1.66 4 2.32 4 3 C4.66 3 5.32 3 6 3 C6 4.98 6 6.96 6 9 C2.91910327 6.22719294 1.31224548 3.93673644 0 0 Z " fill="#5E5B53" transform="translate(118,72)"/>
<path d="M0 0 C1 3 1 3 1 5 C-0.32 5.33 -1.64 5.66 -3 6 C-3.33 7.32 -3.66 8.64 -4 10 C-4.66 10 -5.32 10 -6 10 C-4.6302836 6.00499382 -2.74277578 3.19990508 0 0 Z " fill="#79766E" transform="translate(38,41)"/>
<path d="M0 0 C0 3.52232517 -0.56731481 4.05751328 -2.8125 6.625 C-3.59560547 7.54152344 -3.59560547 7.54152344 -4.39453125 8.4765625 C-6 10 -6 10 -9 11 C-7.59155282 7.78475695 -5.89655214 5.67816132 -3.375 3.25 C-2.74335937 2.63640625 -2.11171875 2.0228125 -1.4609375 1.390625 C-0.73777344 0.70226562 -0.73777344 0.70226562 0 0 Z " fill="#6B6860" transform="translate(48,30)"/>
<path d="M0 0 C2.61724095 2.36797991 4.32861729 4.89600354 6 8 C6 8.66 6 9.32 6 10 C4.68 9.34 3.36 8.68 2 8 C2 7.01 2 6.02 2 5 C1.34 5 0.68 5 0 5 C0 3.35 0 1.7 0 0 Z " fill="#6D4E34" transform="translate(138,144)"/>
<path d="M0 0 C5.61 0 11.22 0 17 0 C17 0.33 17 0.66 17 1 C11.72 1 6.44 1 1 1 C0.67 1.99 0.34 2.98 0 4 C-0.66 4 -1.32 4 -2 4 C-1.34 2.68 -0.68 1.36 0 0 Z " fill="#614C36" transform="translate(112,130)"/>
<path d="M0 0 C0.75 1.5625 0.75 1.5625 1 4 C-0.13084437 6.50286409 -1.52139516 8.67007722 -3 11 C-3.66 11 -4.32 11 -5 11 C-3.77472971 6.94718288 -2.30119506 3.55639236 0 0 Z " fill="#D0CFCA" transform="translate(71,118)"/>
<path d="M0 0 C0.99 0.33 1.98 0.66 3 1 C3 1.66 3 2.32 3 3 C3.66 3 4.32 3 5 3 C5.66 5.64 6.32 8.28 7 11 C3.18699218 7.7129243 1.77027754 4.60272162 0 0 Z " fill="#6F4F30" transform="translate(138,56)"/>
<path d="M0 0 C0 0.99 0 1.98 0 3 C-2.64 3.33 -5.28 3.66 -8 4 C-7.67 3.01 -7.34 2.02 -7 1 C-4.52260646 0.09162237 -2.66420516 0 0 0 Z " fill="#F9F7F6" transform="translate(151,183)"/>
<path d="M0 0 C0.99 0 1.98 0 3 0 C1.54955729 4.10958767 -0.51110752 7.43258745 -3 11 C-4 8 -4 8 -3.22265625 5.95703125 C-2.83980469 5.24933594 -2.45695312 4.54164063 -2.0625 3.8125 C-1.68222656 3.09707031 -1.30195312 2.38164062 -0.91015625 1.64453125 C-0.60980469 1.10183594 -0.30945313 0.55914062 0 0 Z " fill="#CE7735" transform="translate(109,129)"/>
<path d="M0 0 C1.485 0.99 1.485 0.99 3 2 C3.375 5.4375 3.375 5.4375 3 9 C2.01 9.99 1.02 10.98 0 12 C0 8.04 0 4.08 0 0 Z " fill="#7A522F" transform="translate(136,93)"/>
<path d="M0 0 C0.66 0 1.32 0 2 0 C2.125 2.375 2.125 2.375 2 5 C1.34 5.66 0.68 6.32 0 7 C-0.99 7 -1.98 7 -3 7 C-3 6.01 -3 5.02 -3 4 C-2.34 4 -1.68 4 -1 4 C-0.67 2.68 -0.34 1.36 0 0 Z " fill="#514E45" transform="translate(89,123)"/>
<path d="M0 0 C0.66 0.33 1.32 0.66 2 1 C1.38125 1.7425 0.7625 2.485 0.125 3.25 C-1.60437281 5.48801188 -2.86106661 7.43739987 -4 10 C-4.33 9.34 -4.66 8.68 -5 8 C-5.66 7.67 -6.32 7.34 -7 7 C-4.69 4.69 -2.38 2.38 0 0 Z " fill="#D9D6D4" transform="translate(58,32)"/>
<path d="M0 0 C0 0.66 0 1.32 0 2 C-2.75 4.1875 -2.75 4.1875 -6 6 C-8.203125 5.61328125 -8.203125 5.61328125 -10 5 C-8.71186658 4.16121545 -7.41936744 3.32913217 -6.125 2.5 C-5.40570313 2.0359375 -4.68640625 1.571875 -3.9453125 1.09375 C-2 0 -2 0 0 0 Z " fill="#7D7A74" transform="translate(74,12)"/>
<path d="M0 0 C0.66 0.66 1.32 1.32 2 2 C0.35 3.65 -1.3 5.3 -3 7 C-3.33 5.02 -3.66 3.04 -4 1 C-2.125 0.375 -2.125 0.375 0 0 Z " fill="#625F56" transform="translate(181,156)"/>
<path d="M0 0 C-1.44253657 3.36591866 -3.33264727 5.51047079 -6 8 C-6.66 7.34 -7.32 6.68 -8 6 C-7.0479279 4.99403703 -6.08812654 3.99538437 -5.125 3 C-4.59132812 2.443125 -4.05765625 1.88625 -3.5078125 1.3125 C-2 0 -2 0 0 0 Z " fill="#6C6A63" transform="translate(57,23)"/>
<path d="M0 0 C1.98 0.66 3.96 1.32 6 2 C6 2.99 6 3.98 6 5 C4.35 4.67 2.7 4.34 1 4 C0.67 2.68 0.34 1.36 0 0 Z " fill="#FAF8F6" transform="translate(71,176)"/>
<path d="M0 0 C0.8125 1.6875 0.8125 1.6875 1 4 C-1.4375 6.75 -1.4375 6.75 -4 9 C-4.33 8.01 -4.66 7.02 -5 6 C-3.59554165 3.7363436 -1.8032087 1.9791315 0 0 Z " fill="#F3F2EE" transform="translate(53,39)"/>
<path d="M0 0 C1.485 0.99 1.485 0.99 3 2 C2.67 5.96 2.34 9.92 2 14 C1.67 14 1.34 14 1 14 C0.67 9.38 0.34 4.76 0 0 Z " fill="#996639" transform="translate(121,28)"/>
<path d="M0 0 C3.05882701 1.52941351 3.68951234 3.94219546 5 7 C4.67 7.66 4.34 8.32 4 9 C3.01 8.67 2.02 8.34 1 8 C0.67 5.36 0.34 2.72 0 0 Z " fill="#6A4E30" transform="translate(123,71)"/>
<path d="M0 0 C0.33 0 0.66 0 1 0 C1.25 2.75 1.25 2.75 1 6 C-1 8.375 -1 8.375 -3 10 C-3.66 9.67 -4.32 9.34 -5 9 C-4.360625 8.071875 -3.72125 7.14375 -3.0625 6.1875 C-0.91377907 3.15780057 -0.91377907 3.15780057 0 0 Z " fill="#CC7433" transform="translate(121,42)"/>
<path d="M0 0 C1.65 1.65 3.3 3.3 5 5 C4.34 5.66 3.68 6.32 3 7 C1.35 5.02 -0.3 3.04 -2 1 C-1.34 0.67 -0.68 0.34 0 0 Z " fill="#67645D" transform="translate(58,161)"/>
<path d="M0 0 C0.66 0 1.32 0 2 0 C2.66 2.64 3.32 5.28 4 8 C2.68 7.34 1.36 6.68 0 6 C0 4.02 0 2.04 0 0 Z " fill="#CA7434" transform="translate(145,119)"/>
<path d="M0 0 C0.99 0.33 1.98 0.66 3 1 C2.67 2.65 2.34 4.3 2 6 C1.01 5.67 0.02 5.34 -1 5 C-0.67 3.35 -0.34 1.7 0 0 Z " fill="#F1EFEC" transform="translate(194,56)"/>
<path d="M0 0 C0.66 0.33 1.32 0.66 2 1 C1.67 1.99 1.34 2.98 1 4 C-0.98 4.33 -2.96 4.66 -5 5 C-4 2 -4 2 -2.0625 0.75 C-1.381875 0.5025 -0.70125 0.255 0 0 Z " fill="#F6F5F1" transform="translate(88,16)"/>
<path d="M0 0 C2.72426311 2.35277269 3.8141763 4.62496331 5 8 C4.01 7.67 3.02 7.34 2 7 C2 6.34 2 5.68 2 5 C1.34 5 0.68 5 0 5 C0 3.35 0 1.7 0 0 Z " fill="#7A5235" transform="translate(133,135)"/>
<path d="M0 0 C0.99 0.33 1.98 0.66 3 1 C3 3.31 3 5.62 3 8 C1.5 6.8125 1.5 6.8125 0 5 C-0.1875 2.3125 -0.1875 2.3125 0 0 Z " fill="#604C35" transform="translate(148,120)"/>
<path d="M0 0 C1.98 1.65 3.96 3.3 6 5 C4.68 5.33 3.36 5.66 2 6 C1.67 5.01 1.34 4.02 1 3 C0.34 2.67 -0.32 2.34 -1 2 C-0.67 1.34 -0.34 0.68 0 0 Z " fill="#5D5C54" transform="translate(178,41)"/>
<path d="M0 0 C3.96 1.98 3.96 1.98 8 4 C5.13822943 5.43088528 3.06624227 4.59991697 0 4 C0 2.68 0 1.36 0 0 Z " fill="#66655B" transform="translate(164,14)"/>
</svg>
